<svg id="Layer_2" xmlns="http://www.w3.org/2000/svg" viewBox="0 0 277.1 163.82" width="100%" height="100%" preserveAspectRatio="none"><defs><style> .cls-1 { opacity: .7; } .cls-2 { fill: #623358; } .cls-2, .cls-3, .cls-4, .cls-5, .cls-6, .cls-7 { stroke-width: 0px; } .cls-3 { fill: #9e4c62; } .cls-4 { fill: #bc5967; } .cls-5 { fill: #80405d; } .cls-6 { fill: #fff; } .cls-7 { fill: #eb6b6f; } </style></defs><g id="Layer_1-2"><g class="cls-1"><g><circle class="cls-6" cx="134.36" cy="55.92" r="21.5"/><path class="cls-7" d="m115.34,67.36c-1.04-1.73-1.84-3.59-2.38-5.55-.76-2.77-.98-5.62-.64-8.48.34-2.86,1.21-5.59,2.59-8.1,1.43-2.6,3.35-4.87,5.7-6.72,2.35-1.86,5-3.2,7.86-3.98,2.77-.76,5.62-.98,8.48-.64,2.86.34,5.59,1.21,8.1,2.59,2.6,1.43,4.87,3.35,6.72,5.7,1.86,2.35,3.2,5,3.98,7.86.76,2.77.98,5.62.64,8.48-.34,2.86-1.21,5.59-2.59,8.1-1.43,2.6-3.35,4.87-5.7,6.72h0c-2.35,1.86-5,3.2-7.86,3.98-2.77.76-5.62.98-8.48.64-2.86-.34-5.59-1.21-8.1-2.59-2.6-1.43-4.87-3.35-6.72-5.7-.59-.74-1.12-1.52-1.61-2.32Zm36.86-22.16c-.45-.75-.96-1.48-1.51-2.18-7.11-9.01-20.22-10.55-29.23-3.44-4.36,3.44-7.12,8.38-7.77,13.9-.54,4.63.45,9.21,2.83,13.15.45.75.96,1.48,1.51,2.18,3.44,4.36,8.38,7.12,13.9,7.77,5.52.65,10.96-.89,15.32-4.33,4.36-3.44,7.12-8.38,7.77-13.9.54-4.63-.45-9.21-2.83-13.15Z"/></g><g><circle class="cls-6" cx="134.36" cy="55.92" r="18.35"/><path class="cls-7" d="m118.04,65.73c-.9-1.48-1.58-3.08-2.04-4.76-.65-2.37-.84-4.82-.55-7.28.29-2.46,1.04-4.8,2.22-6.95,1.23-2.23,2.87-4.18,4.89-5.77,2.02-1.59,4.29-2.74,6.75-3.42,2.37-.65,4.82-.84,7.28-.55,2.46.29,4.8,1.04,6.95,2.22,2.23,1.23,4.18,2.87,5.77,4.89,1.59,2.02,2.74,4.29,3.42,6.75.65,2.37.84,4.82.55,7.28-.29,2.46-1.04,4.8-2.22,6.95-1.23,2.23-2.87,4.18-4.89,5.77h0c-2.02,1.59-4.29,2.74-6.75,3.42-2.37.65-4.82.84-7.28.55-2.46-.29-4.8-1.04-6.95-2.22-2.23-1.23-4.18-2.87-5.77-4.89-.5-.64-.96-1.3-1.38-1.99Zm31.46-18.91c-.38-.64-.81-1.25-1.28-1.85-6.03-7.64-17.16-8.95-24.8-2.92-3.7,2.92-6.04,7.11-6.59,11.8-.55,4.68.76,9.3,3.68,13,2.92,3.7,7.11,6.04,11.8,6.59,4.68.55,9.3-.76,13-3.68,3.7-2.92,6.04-7.11,6.59-11.8.46-3.93-.38-7.82-2.4-11.16Z"/></g><g><circle class="cls-6" cx="134.36" cy="55.92" r="15.2"/><path class="cls-7" d="m120.74,64.11c-.75-1.24-1.32-2.57-1.7-3.97-.54-1.98-.7-4.03-.46-6.08.24-2.05.86-4,1.85-5.8,1.02-1.87,2.4-3.48,4.08-4.81s3.58-2.29,5.63-2.85c1.98-.54,4.03-.7,6.08-.46,2.05.24,4,.86,5.8,1.85,1.87,1.02,3.48,2.4,4.81,4.08,1.33,1.68,2.29,3.58,2.85,5.63.54,1.98.7,4.03.46,6.08-.24,2.05-.86,4-1.85,5.8-1.02,1.87-2.4,3.48-4.08,4.81-1.68,1.33-3.58,2.29-5.63,2.85-1.98.54-4.03.7-6.08.46-2.05-.24-4-.86-5.8-1.85-1.87-1.02-3.48-2.4-4.81-4.08-.42-.53-.8-1.09-1.15-1.66Zm26.06-15.66c-.32-.52-.67-1.03-1.05-1.52-2.4-3.04-5.84-4.97-9.69-5.42-3.85-.45-7.64.62-10.68,3.02-6.28,4.96-7.35,14.1-2.4,20.38,4.96,6.28,14.1,7.35,20.38,2.4,3.04-2.4,4.97-5.84,5.42-9.69.38-3.23-.32-6.42-1.97-9.17Z"/></g><g><circle class="cls-6" cx="134.36" cy="55.92" r="12.05"/><path class="cls-7" d="m123.44,62.48c-1.45-2.41-2.06-5.21-1.73-8.05.4-3.38,2.09-6.4,4.76-8.51,2.67-2.11,6-3.05,9.38-2.65,3.38.4,6.4,2.09,8.51,4.76,2.11,2.67,3.05,6,2.65,9.38-.4,3.38-2.09,6.4-4.76,8.51-2.67,2.11-6,3.05-9.38,2.65-3.38-.4-6.4-2.09-8.51-4.76-.34-.43-.65-.87-.92-1.33Zm20.66-12.41c-.25-.41-.52-.81-.82-1.19-3.88-4.91-11.04-5.76-15.95-1.88-4.53,3.58-5.6,9.95-2.69,14.77.24.4.52.8.81,1.18,3.88,4.91,11.04,5.76,15.95,1.88,2.38-1.88,3.89-4.57,4.24-7.59.3-2.53-.25-5.03-1.54-7.17Z"/></g><g><circle class="cls-6" cx="134.36" cy="55.92" r="8.9"/><path class="cls-7" d="m126.14,60.86c-1.09-1.81-1.55-3.92-1.3-6.06.3-2.54,1.57-4.82,3.58-6.41,2.01-1.59,4.52-2.3,7.06-2,2.54.3,4.82,1.57,6.41,3.58,1.59,2.01,2.3,4.52,2,7.06-.3,2.54-1.57,4.82-3.58,6.41-2.01,1.59-4.52,2.3-7.06,2-2.54-.3-4.82-1.57-6.41-3.58-.25-.32-.49-.66-.7-1Zm15.26-9.17c-.18-.3-.38-.58-.6-.86-1.36-1.72-3.3-2.81-5.48-3.06-2.18-.26-4.32.35-6.04,1.71-1.72,1.36-2.81,3.3-3.06,5.48-.26,2.18.35,4.32,1.71,6.04,1.36,1.72,3.3,2.81,5.48,3.06,2.18.26,4.32-.35,6.04-1.71,1.72-1.36,2.81-3.3,3.06-5.48.21-1.83-.18-3.63-1.11-5.18Z"/></g><g><circle class="cls-6" cx="134.36" cy="55.92" r="5.75"/><path class="cls-7" d="m128.84,59.24c-.73-1.22-1.04-2.63-.87-4.07.2-1.71,1.06-3.24,2.41-4.3,2.79-2.2,6.85-1.72,9.05,1.06,2.2,2.79,1.72,6.85-1.06,9.05-1.35,1.07-3.03,1.54-4.74,1.34-1.71-.2-3.24-1.06-4.3-2.41-.17-.22-.33-.44-.47-.67Zm9.85-5.93c-.11-.18-.23-.35-.36-.52-1.73-2.19-4.91-2.56-7.1-.83-1.06.84-1.73,2.04-1.89,3.38-.16,1.34.22,2.66,1.05,3.72.84,1.06,2.04,1.73,3.38,1.89,1.34.16,2.66-.22,3.72-1.05,2.02-1.59,2.49-4.43,1.2-6.58Z"/></g><g><circle class="cls-6" cx="154.67" cy="90.19" r="21.5"/><path class="cls-7" d="m135.65,101.63c-1.04-1.73-1.84-3.59-2.38-5.55-.76-2.77-.98-5.62-.64-8.48.34-2.86,1.21-5.59,2.59-8.1,1.43-2.6,3.35-4.87,5.7-6.72,2.35-1.86,5-3.2,7.86-3.98,2.77-.76,5.62-.98,8.48-.64,2.86.34,5.59,1.21,8.1,2.59,2.6,1.43,4.87,3.35,6.72,5.7,1.86,2.35,3.2,5,3.98,7.86.76,2.77.98,5.62.64,8.48-.34,2.86-1.21,5.59-2.59,8.1-1.43,2.6-3.35,4.87-5.7,6.72h0c-2.35,1.86-5,3.2-7.86,3.98-2.77.76-5.62.98-8.48.64-2.86-.34-5.59-1.21-8.1-2.59-2.6-1.43-4.87-3.35-6.72-5.7-.59-.74-1.12-1.52-1.61-2.32Zm36.86-22.16c-.45-.75-.96-1.48-1.51-2.18-7.11-9.01-20.22-10.55-29.23-3.44-4.36,3.44-7.12,8.38-7.77,13.9-.54,4.63.45,9.21,2.83,13.15.45.75.96,1.48,1.51,2.18,3.44,4.36,8.38,7.12,13.9,7.77,5.52.65,10.96-.89,15.32-4.33,4.36-3.44,7.12-8.38,7.77-13.9.54-4.63-.45-9.21-2.83-13.15Z"/></g><g><circle class="cls-6" cx="154.67" cy="90.19" r="18.35"/><path class="cls-7" d="m138.35,100c-.9-1.48-1.58-3.08-2.04-4.76-.65-2.37-.84-4.82-.55-7.28.29-2.46,1.04-4.8,2.22-6.95,1.23-2.23,2.87-4.18,4.89-5.77,2.02-1.59,4.29-2.74,6.75-3.42,2.37-.65,4.82-.84,7.28-.55,2.46.29,4.8,1.04,6.95,2.22,2.23,1.23,4.18,2.87,5.77,4.89,1.59,2.02,2.74,4.29,3.42,6.75.65,2.37.84,4.82.55,7.28-.29,2.46-1.04,4.8-2.22,6.95-1.23,2.23-2.87,4.18-4.89,5.77h0c-2.02,1.59-4.29,2.74-6.75,3.42-2.37.65-4.82.84-7.28.55-2.46-.29-4.8-1.04-6.95-2.22-2.23-1.23-4.18-2.87-5.77-4.89-.5-.64-.96-1.3-1.38-1.99Zm31.46-18.91c-.38-.64-.81-1.25-1.28-1.85-6.03-7.64-17.16-8.95-24.8-2.92-3.7,2.92-6.04,7.11-6.59,11.8-.55,4.68.76,9.3,3.68,13,2.92,3.7,7.11,6.04,11.8,6.59,4.68.55,9.3-.76,13-3.68,3.7-2.92,6.04-7.11,6.59-11.8.46-3.93-.38-7.82-2.4-11.16Z"/></g><g><circle class="cls-6" cx="154.67" cy="90.19" r="15.2"/><path class="cls-7" d="m141.05,98.38c-.75-1.24-1.32-2.57-1.7-3.97-.54-1.98-.7-4.03-.46-6.08.24-2.05.86-4,1.85-5.8,1.02-1.87,2.4-3.48,4.08-4.81,1.68-1.33,3.58-2.29,5.63-2.85,1.98-.54,4.03-.7,6.08-.46,2.05.24,4,.86,5.8,1.85,1.87,1.02,3.48,2.4,4.81,4.08,1.33,1.68,2.29,3.58,2.85,5.63.54,1.98.7,4.03.46,6.08-.24,2.05-.86,4-1.85,5.8-1.02,1.87-2.4,3.48-4.08,4.81-1.68,1.33-3.58,2.29-5.63,2.85-1.98.54-4.03.7-6.08.46-2.05-.24-4-.86-5.8-1.85-1.87-1.02-3.48-2.4-4.81-4.08-.42-.53-.8-1.09-1.15-1.66Zm26.06-15.66c-.32-.52-.67-1.03-1.05-1.52-2.4-3.04-5.84-4.97-9.69-5.42-3.85-.45-7.64.62-10.68,3.02-6.28,4.96-7.35,14.1-2.4,20.38,4.96,6.28,14.1,7.35,20.38,2.4,3.04-2.4,4.97-5.84,5.42-9.69.38-3.23-.32-6.42-1.97-9.17Z"/></g><g><circle class="cls-6" cx="154.67" cy="90.19" r="12.05"/><path class="cls-7" d="m143.75,96.75c-1.45-2.41-2.06-5.21-1.73-8.05.4-3.38,2.09-6.4,4.76-8.51,2.67-2.11,6-3.05,9.38-2.65,3.38.4,6.4,2.09,8.51,4.76,2.11,2.67,3.05,6,2.65,9.38-.4,3.38-2.09,6.4-4.76,8.51-2.67,2.11-6,3.05-9.38,2.65-3.38-.4-6.4-2.09-8.51-4.76-.34-.43-.65-.87-.92-1.33Zm20.66-12.41c-.25-.41-.52-.81-.82-1.19-3.88-4.91-11.04-5.76-15.95-1.88-4.53,3.58-5.6,9.95-2.69,14.77.24.4.52.8.81,1.18,3.88,4.91,11.04,5.76,15.95,1.88,2.38-1.88,3.89-4.57,4.24-7.59.3-2.53-.25-5.03-1.54-7.17Z"/></g><g><circle class="cls-6" cx="154.67" cy="90.19" r="8.9"/><path class="cls-7" d="m146.45,95.13c-1.09-1.81-1.55-3.92-1.3-6.06.3-2.54,1.57-4.82,3.58-6.41,2.01-1.59,4.52-2.3,7.06-2,2.54.3,4.82,1.57,6.41,3.58,1.59,2.01,2.3,4.52,2,7.06-.3,2.54-1.57,4.82-3.58,6.41-2.01,1.59-4.52,2.3-7.06,2-2.54-.3-4.82-1.57-6.41-3.58-.25-.32-.49-.66-.7-1Zm15.26-9.17c-.18-.3-.38-.58-.6-.86-1.36-1.72-3.3-2.81-5.48-3.06-2.18-.26-4.32.35-6.04,1.71-1.72,1.36-2.81,3.3-3.06,5.48-.26,2.18.35,4.32,1.71,6.04,1.36,1.72,3.3,2.81,5.48,3.06,2.18.26,4.32-.35,6.04-1.71,1.72-1.36,2.81-3.3,3.06-5.48.21-1.83-.18-3.63-1.11-5.18Z"/></g><g><circle class="cls-6" cx="154.67" cy="90.19" r="5.75"/><path class="cls-7" d="m149.15,93.51c-.73-1.22-1.04-2.63-.87-4.07.2-1.71,1.06-3.24,2.41-4.3,2.79-2.2,6.85-1.72,9.05,1.06,2.2,2.79,1.72,6.85-1.06,9.05-1.35,1.07-3.03,1.54-4.74,1.34-1.71-.2-3.24-1.06-4.3-2.41-.17-.22-.33-.44-.47-.67Zm9.85-5.93c-.11-.18-.23-.35-.36-.52-1.73-2.19-4.91-2.56-7.1-.83-1.06.84-1.73,2.04-1.89,3.38-.16,1.34.22,2.66,1.05,3.72.84,1.06,2.04,1.73,3.38,1.89,1.34.16,2.66-.22,3.72-1.05,2.02-1.59,2.49-4.43,1.2-6.58Z"/></g><g><circle class="cls-6" cx="219.35" cy="77.86" r="27.22"/><path class="cls-2" d="m195.26,92.34c-1.32-2.19-2.33-4.54-3.01-7.02-.96-3.5-1.24-7.12-.81-10.74.43-3.62,1.53-7.08,3.28-10.26,1.81-3.3,4.24-6.16,7.22-8.51,2.98-2.35,6.33-4.05,9.95-5.05,3.5-.96,7.12-1.24,10.74-.81,3.62.43,7.08,1.53,10.26,3.28,3.3,1.81,6.16,4.24,8.51,7.22,2.35,2.98,4.05,6.33,5.05,9.95.96,3.5,1.24,7.12.81,10.74-.43,3.62-1.53,7.08-3.28,10.26-1.81,3.3-4.24,6.16-7.22,8.51h0c-2.98,2.35-6.33,4.05-9.95,5.05-3.5.96-7.12,1.24-10.74.81-3.62-.43-7.08-1.53-10.26-3.28-3.3-1.81-6.16-4.24-8.51-7.22-.74-.94-1.42-1.92-2.03-2.93Zm46.67-28.05c-.57-.95-1.21-1.87-1.91-2.76-9-11.4-25.6-13.35-37-4.35-5.52,4.36-9.02,10.61-9.84,17.6-.69,5.87.57,11.67,3.58,16.64.57.95,1.21,1.87,1.91,2.76,4.36,5.52,10.61,9.02,17.6,9.84,6.99.82,13.88-1.13,19.4-5.49,5.52-4.36,9.02-10.61,9.84-17.6.69-5.87-.57-11.67-3.58-16.64Z"/></g><g><circle class="cls-6" cx="219.35" cy="77.86" r="23.23"/><path class="cls-5" d="m198.68,90.29c-1.13-1.88-2-3.9-2.59-6.02-.83-3.01-1.06-6.11-.69-9.22.37-3.11,1.31-6.07,2.81-8.8,1.55-2.83,3.64-5.29,6.19-7.3,2.55-2.02,5.43-3.47,8.54-4.33,3.01-.83,6.11-1.06,9.22-.69,3.11.37,6.07,1.31,8.8,2.81,2.83,1.55,5.29,3.64,7.3,6.19,2.02,2.55,3.47,5.43,4.33,8.54.83,3.01,1.06,6.11.69,9.22-.37,3.11-1.31,6.07-2.81,8.8-1.55,2.83-3.64,5.29-6.19,7.3h0c-2.55,2.02-5.43,3.47-8.54,4.33-3.01.83-6.11,1.06-9.22.69-3.11-.37-6.07-1.31-8.8-2.81-2.83-1.55-5.29-3.64-7.3-6.19-.64-.81-1.22-1.65-1.74-2.52Zm39.83-23.94c-.49-.81-1.03-1.59-1.62-2.34-7.64-9.67-21.73-11.33-31.4-3.69-4.69,3.7-7.65,9-8.35,14.94-.7,5.93.96,11.78,4.66,16.46,3.7,4.69,9,7.65,14.94,8.35,5.93.7,11.78-.96,16.46-4.66,4.69-3.7,7.65-9,8.35-14.94.59-4.98-.49-9.9-3.04-14.12Z"/></g><g><circle class="cls-6" cx="219.35" cy="77.86" r="19.24"/><path class="cls-3" d="m202.1,88.23c-.95-1.57-1.67-3.25-2.16-5.03-.69-2.51-.88-5.1-.58-7.69.31-2.6,1.09-5.07,2.35-7.35,1.3-2.36,3.04-4.41,5.17-6.1,2.13-1.68,4.53-2.9,7.13-3.61,2.51-.69,5.1-.88,7.69-.58,2.6.31,5.07,1.09,7.35,2.35,2.36,1.3,4.41,3.04,6.1,5.17,1.68,2.13,2.9,4.53,3.61,7.13.69,2.51.88,5.1.58,7.69-.31,2.6-1.09,5.07-2.35,7.35-1.3,2.36-3.04,4.41-5.17,6.1-2.13,1.68-4.53,2.9-7.13,3.61-2.51.69-5.1.88-7.69.58-2.6-.31-5.07-1.09-7.35-2.35-2.36-1.3-4.41-3.04-6.1-5.17-.53-.67-1.02-1.37-1.46-2.1Zm32.99-19.83c-.4-.66-.84-1.3-1.33-1.92-3.04-3.85-7.4-6.29-12.27-6.86-4.87-.57-9.68.79-13.53,3.83-7.95,6.28-9.31,17.85-3.03,25.8,6.28,7.95,17.85,9.31,25.8,3.03,3.85-3.04,6.29-7.4,6.86-12.27.48-4.09-.4-8.13-2.49-11.6Z"/></g><g><circle class="cls-6" cx="219.35" cy="77.86" r="15.26"/><path class="cls-4" d="m205.52,86.17c-1.84-3.05-2.61-6.6-2.19-10.19.5-4.28,2.64-8.11,6.03-10.78,3.38-2.67,7.6-3.86,11.88-3.36,4.28.5,8.11,2.64,10.78,6.03,2.67,3.38,3.86,7.6,3.36,11.88-.5,4.28-2.64,8.11-6.03,10.78-3.38,2.67-7.6,3.86-11.88,3.36-4.28-.5-8.11-2.64-10.78-6.03-.43-.54-.82-1.11-1.17-1.69Zm26.16-15.71c-.31-.52-.66-1.02-1.04-1.5-4.91-6.22-13.97-7.29-20.19-2.37-5.74,4.53-7.09,12.6-3.41,18.7.31.51.65,1.01,1.03,1.49,4.91,6.22,13.97,7.29,20.19,2.37,3.01-2.38,4.92-5.79,5.37-9.61.38-3.2-.31-6.37-1.95-9.08Z"/></g><g><circle class="cls-6" cx="219.35" cy="77.86" r="11.27"/><path class="cls-7" d="m208.94,84.11c-1.38-2.29-1.97-4.97-1.65-7.67.38-3.22,1.99-6.1,4.54-8.11,2.55-2.01,5.72-2.91,8.94-2.53,3.22.38,6.1,1.99,8.11,4.54,2.01,2.55,2.91,5.72,2.53,8.94-.38,3.22-1.99,6.1-4.54,8.11-2.55,2.01-5.72,2.91-8.94,2.53-3.22-.38-6.1-1.99-8.11-4.54-.32-.41-.62-.83-.88-1.27Zm19.32-11.6c-.23-.37-.48-.74-.75-1.09-1.72-2.18-4.18-3.56-6.94-3.88-2.76-.32-5.47.44-7.65,2.16-2.18,1.72-3.56,4.18-3.88,6.94-.32,2.76.44,5.47,2.16,7.65,1.72,2.18,4.18,3.56,6.94,3.88,2.76.32,5.47-.44,7.65-2.16,2.18-1.72,3.56-4.18,3.88-6.94.27-2.31-.23-4.6-1.41-6.56Z"/></g><g><circle class="cls-6" cx="219.35" cy="77.86" r="7.28"/><path class="cls-7" d="m212.36,82.06c-.93-1.54-1.32-3.34-1.11-5.15.25-2.16,1.34-4.1,3.05-5.45,3.53-2.79,8.67-2.18,11.45,1.35,2.79,3.53,2.18,8.67-1.35,11.45-1.71,1.35-3.84,1.95-6.01,1.7-2.16-.25-4.1-1.34-5.45-3.05-.22-.27-.41-.56-.59-.85Zm12.47-7.5c-.14-.23-.29-.45-.46-.66-2.19-2.77-6.22-3.24-8.99-1.06-1.34,1.06-2.19,2.58-2.39,4.27-.2,1.7.27,3.37,1.33,4.71,1.06,1.34,2.58,2.19,4.27,2.39,1.7.2,3.37-.27,4.71-1.33,2.56-2.02,3.16-5.61,1.52-8.32Z"/></g><g><circle class="cls-6" cx="198.31" cy="48.06" r="27.22"/><path class="cls-2" d="m174.22,62.54c-1.32-2.19-2.33-4.54-3.01-7.02-.96-3.5-1.24-7.12-.81-10.74.43-3.62,1.53-7.08,3.28-10.26,1.81-3.3,4.24-6.16,7.22-8.51,2.98-2.35,6.33-4.05,9.95-5.05,3.5-.96,7.12-1.24,10.74-.81,3.62.43,7.08,1.53,10.26,3.28,3.3,1.81,6.16,4.24,8.51,7.22,2.35,2.98,4.05,6.33,5.05,9.95.96,3.5,1.24,7.12.81,10.74-.43,3.62-1.53,7.08-3.28,10.26-1.81,3.3-4.24,6.16-7.22,8.51h0c-2.98,2.35-6.33,4.05-9.95,5.05-3.5.96-7.12,1.24-10.74.81-3.62-.43-7.08-1.53-10.26-3.28-3.3-1.81-6.16-4.24-8.51-7.22-.74-.94-1.42-1.92-2.03-2.93Zm46.67-28.05c-.57-.95-1.21-1.87-1.91-2.76-9-11.4-25.6-13.35-37-4.35-5.52,4.36-9.02,10.61-9.84,17.6-.69,5.87.57,11.67,3.58,16.64.57.95,1.21,1.87,1.91,2.76,4.36,5.52,10.61,9.02,17.6,9.84,6.99.82,13.88-1.13,19.4-5.49,5.52-4.36,9.02-10.61,9.84-17.6.69-5.87-.57-11.67-3.58-16.64Z"/></g><g><circle class="cls-6" cx="198.31" cy="48.06" r="23.23"/><path class="cls-5" d="m177.64,60.49c-1.13-1.88-2-3.9-2.59-6.02-.83-3.01-1.06-6.11-.69-9.22.37-3.11,1.31-6.07,2.81-8.8,1.55-2.83,3.64-5.29,6.19-7.3,2.55-2.02,5.43-3.47,8.54-4.33,3.01-.83,6.11-1.06,9.22-.69,3.11.37,6.07,1.31,8.8,2.81,2.83,1.55,5.29,3.64,7.3,6.19,2.02,2.55,3.47,5.43,4.33,8.54.83,3.01,1.06,6.11.69,9.22-.37,3.11-1.31,6.07-2.81,8.8-1.55,2.83-3.64,5.29-6.19,7.3h0c-2.55,2.02-5.43,3.47-8.54,4.33-3.01.83-6.11,1.06-9.22.69-3.11-.37-6.07-1.31-8.8-2.81-2.83-1.55-5.29-3.64-7.3-6.19-.64-.81-1.22-1.65-1.74-2.52Zm39.83-23.94c-.49-.81-1.03-1.59-1.62-2.34-7.64-9.67-21.73-11.33-31.4-3.69-4.69,3.7-7.65,9-8.35,14.94-.7,5.93.96,11.78,4.66,16.46,3.7,4.69,9,7.65,14.94,8.35,5.93.7,11.78-.96,16.46-4.66,4.69-3.7,7.65-9,8.35-14.94.59-4.98-.49-9.9-3.04-14.12Z"/></g><g><circle class="cls-6" cx="198.31" cy="48.06" r="19.24"/><path class="cls-3" d="m181.06,58.43c-.95-1.57-1.67-3.25-2.16-5.03-.69-2.51-.88-5.1-.58-7.69.31-2.6,1.09-5.07,2.35-7.35,1.3-2.36,3.04-4.41,5.17-6.1,2.13-1.68,4.53-2.9,7.13-3.61,2.51-.69,5.1-.88,7.69-.58,2.6.31,5.07,1.09,7.35,2.35,2.36,1.3,4.41,3.04,6.1,5.17,1.68,2.13,2.9,4.53,3.61,7.13.69,2.51.88,5.1.58,7.69-.31,2.6-1.09,5.07-2.35,7.35-1.3,2.36-3.04,4.41-5.17,6.1-2.13,1.68-4.53,2.9-7.13,3.61-2.51.69-5.1.88-7.69.58-2.6-.31-5.07-1.09-7.35-2.35-2.36-1.3-4.41-3.04-6.1-5.17-.53-.67-1.02-1.37-1.46-2.1Zm32.99-19.83c-.4-.66-.84-1.3-1.33-1.92-3.04-3.85-7.4-6.29-12.27-6.86-4.87-.57-9.68.79-13.53,3.83-7.95,6.28-9.31,17.85-3.03,25.8,6.28,7.95,17.85,9.31,25.8,3.03,3.85-3.04,6.29-7.4,6.86-12.27.48-4.09-.4-8.13-2.49-11.6Z"/></g><g><circle class="cls-6" cx="198.31" cy="48.06" r="15.26"/><path class="cls-4" d="m184.47,56.37c-1.84-3.05-2.61-6.6-2.19-10.19.5-4.28,2.64-8.11,6.03-10.78,3.38-2.67,7.6-3.86,11.88-3.36,4.28.5,8.11,2.64,10.78,6.03,2.67,3.38,3.86,7.6,3.36,11.88-.5,4.28-2.64,8.11-6.03,10.78-3.38,2.67-7.6,3.86-11.88,3.36-4.28-.5-8.11-2.64-10.78-6.03-.43-.54-.82-1.11-1.17-1.69Zm26.16-15.71c-.31-.52-.66-1.02-1.04-1.5-4.91-6.22-13.97-7.29-20.19-2.37-5.74,4.53-7.09,12.6-3.41,18.7.31.51.65,1.01,1.03,1.49,4.91,6.22,13.97,7.29,20.19,2.37,3.01-2.38,4.92-5.79,5.37-9.61.38-3.2-.31-6.37-1.95-9.08Z"/></g><g><circle class="cls-6" cx="198.31" cy="48.06" r="11.27"/><path class="cls-7" d="m187.9,54.32c-1.38-2.29-1.97-4.97-1.65-7.67.38-3.22,1.99-6.1,4.54-8.11,2.55-2.01,5.72-2.91,8.94-2.53,3.22.38,6.1,1.99,8.11,4.54,2.01,2.55,2.91,5.72,2.53,8.94-.38,3.22-1.99,6.1-4.54,8.11-2.55,2.01-5.72,2.91-8.94,2.53-3.22-.38-6.1-1.99-8.11-4.54-.32-.41-.62-.83-.88-1.27Zm19.32-11.6c-.23-.37-.48-.74-.75-1.09-1.72-2.18-4.18-3.56-6.94-3.88-2.76-.32-5.47.44-7.65,2.16-2.18,1.72-3.56,4.18-3.88,6.94-.32,2.76.44,5.47,2.16,7.65,1.72,2.18,4.18,3.56,6.94,3.88,2.76.32,5.47-.44,7.65-2.16,2.18-1.72,3.56-4.18,3.88-6.94.27-2.31-.23-4.6-1.41-6.56Z"/></g><g><circle class="cls-6" cx="198.31" cy="48.06" r="7.28"/><path class="cls-7" d="m191.32,52.26c-.93-1.54-1.32-3.34-1.11-5.15.25-2.16,1.34-4.1,3.05-5.45,3.53-2.79,8.67-2.18,11.45,1.35,2.79,3.53,2.18,8.67-1.35,11.45-1.71,1.35-3.84,1.95-6.01,1.7-2.16-.25-4.1-1.34-5.45-3.05-.22-.27-.41-.56-.59-.85Zm12.47-7.5c-.14-.23-.29-.45-.46-.66-2.19-2.77-6.22-3.24-8.99-1.06-1.34,1.06-2.19,2.58-2.39,4.27-.2,1.7.27,3.37,1.33,4.71,1.06,1.34,2.58,2.19,4.27,2.39,1.7.2,3.37-.27,4.71-1.33,2.56-2.02,3.16-5.61,1.52-8.32Z"/></g><g><circle class="cls-6" cx="166.67" cy="60.01" r="17.9"/><path class="cls-2" d="m150.83,69.53c-.87-1.44-1.53-2.99-1.98-4.62-.63-2.3-.81-4.68-.53-7.06.28-2.38,1.01-4.65,2.16-6.75,1.19-2.17,2.79-4.05,4.75-5.6,1.96-1.55,4.16-2.66,6.55-3.32,2.3-.63,4.68-.81,7.06-.53,2.38.28,4.65,1.01,6.75,2.16,2.17,1.19,4.05,2.79,5.6,4.75,1.55,1.96,2.66,4.16,3.32,6.55.63,2.3.81,4.68.53,7.06-.28,2.38-1.01,4.65-2.16,6.75-1.19,2.17-2.79,4.05-4.75,5.6h0c-1.96,1.55-4.16,2.66-6.55,3.32-2.3.63-4.68.81-7.06.53-2.38-.28-4.65-1.01-6.75-2.16-2.17-1.19-4.05-2.79-5.6-4.75-.49-.62-.93-1.26-1.34-1.93Zm30.7-18.45c-.38-.63-.8-1.23-1.26-1.81-5.92-7.5-16.84-8.78-24.33-2.86-3.63,2.87-5.93,6.98-6.47,11.57-.45,3.86.38,7.67,2.35,10.95.38.63.8,1.23,1.26,1.81,2.87,3.63,6.98,5.93,11.57,6.47,4.6.54,9.13-.74,12.76-3.61,3.63-2.87,5.93-6.98,6.47-11.57.45-3.86-.38-7.67-2.35-10.95Z"/></g><g><circle class="cls-6" cx="166.67" cy="60.01" r="15.28"/><path class="cls-5" d="m153.08,68.18c-.75-1.24-1.32-2.56-1.7-3.96-.54-1.98-.7-4.02-.46-6.06.24-2.05.86-3.99,1.85-5.79,1.02-1.86,2.39-3.48,4.07-4.8,1.68-1.33,3.57-2.28,5.62-2.85,1.98-.54,4.02-.7,6.06-.46,2.05.24,3.99.86,5.79,1.85,1.86,1.02,3.48,2.39,4.8,4.07,1.33,1.68,2.28,3.57,2.85,5.62.54,1.98.7,4.02.46,6.06-.24,2.05-.86,3.99-1.85,5.79-1.02,1.86-2.39,3.48-4.07,4.8h0c-1.68,1.33-3.57,2.28-5.62,2.85-1.98.54-4.02.7-6.06.46-2.05-.24-3.99-.86-5.79-1.85-1.86-1.02-3.48-2.39-4.8-4.07-.42-.53-.8-1.08-1.15-1.65Zm26.2-15.74c-.32-.53-.68-1.04-1.07-1.54-5.02-6.36-14.29-7.45-20.65-2.43-3.08,2.43-5.03,5.92-5.49,9.82-.46,3.9.63,7.75,3.06,10.83,2.43,3.08,5.92,5.03,9.82,5.49,3.9.46,7.75-.63,10.83-3.06,3.08-2.43,5.03-5.92,5.49-9.82.39-3.27-.32-6.51-2-9.29Z"/></g><g><circle class="cls-6" cx="166.67" cy="60.01" r="12.66"/><path class="cls-3" d="m155.33,66.83c-.62-1.03-1.1-2.14-1.42-3.31-.45-1.65-.58-3.35-.38-5.06.2-1.71.72-3.33,1.54-4.83.85-1.55,2-2.9,3.4-4.01,1.4-1.11,2.98-1.91,4.69-2.38,1.65-.45,3.35-.58,5.06-.38,1.71.2,3.33.72,4.83,1.54,1.55.85,2.9,2,4.01,3.4,1.11,1.4,1.91,2.98,2.38,4.69.45,1.65.58,3.35.38,5.06-.2,1.71-.72,3.33-1.54,4.83-.85,1.55-2,2.9-3.4,4.01-1.4,1.11-2.98,1.91-4.69,2.38-1.65.45-3.35.58-5.06.38-1.71-.2-3.33-.72-4.83-1.54-1.55-.85-2.9-2-4.01-3.4-.35-.44-.67-.9-.96-1.38Zm21.7-13.04c-.26-.44-.56-.86-.88-1.26-2-2.53-4.87-4.13-8.07-4.51-3.2-.38-6.36.52-8.9,2.52-5.23,4.13-6.12,11.74-1.99,16.97,4.13,5.23,11.74,6.12,16.97,1.99,2.53-2,4.13-4.87,4.51-8.07.32-2.69-.26-5.35-1.64-7.63Z"/></g><g><circle class="cls-6" cx="166.67" cy="60.01" r="10.03"/><path class="cls-4" d="m157.57,65.47c-1.21-2-1.72-4.34-1.44-6.7.33-2.81,1.74-5.33,3.96-7.09,2.22-1.76,5-2.54,7.81-2.21,2.81.33,5.33,1.74,7.09,3.96,1.76,2.22,2.54,5,2.21,7.81-.33,2.81-1.74,5.33-3.96,7.09-2.22,1.76-5,2.54-7.81,2.21-2.81-.33-5.33-1.74-7.09-3.96-.28-.36-.54-.73-.77-1.11Zm17.2-10.33c-.21-.34-.43-.67-.69-.99-3.23-4.09-9.19-4.79-13.28-1.56-3.78,2.98-4.66,8.28-2.24,12.3.2.34.43.66.68.98,3.23,4.09,9.19,4.79,13.28,1.56,1.98-1.57,3.24-3.81,3.53-6.32.25-2.11-.21-4.19-1.28-5.97Z"/></g><g><circle class="cls-6" cx="166.67" cy="60.01" r="7.41"/><path class="cls-7" d="m159.82,64.12c-.91-1.51-1.29-3.27-1.08-5.05.25-2.12,1.31-4.01,2.98-5.34,1.67-1.32,3.76-1.91,5.88-1.66s4.01,1.31,5.34,2.98c1.32,1.67,1.91,3.76,1.66,5.88-.25,2.12-1.31,4.01-2.98,5.34-1.67,1.32-3.76,1.91-5.88,1.66-2.12-.25-4.01-1.31-5.34-2.98-.21-.27-.41-.55-.58-.84Zm12.7-7.63c-.15-.25-.31-.49-.5-.72-1.13-1.43-2.75-2.34-4.56-2.55-1.81-.21-3.6.29-5.03,1.42-1.43,1.13-2.34,2.75-2.55,4.56-.21,1.81.29,3.6,1.42,5.03,1.13,1.43,2.75,2.34,4.56,2.55,1.81.21,3.6-.29,5.03-1.42,1.43-1.13,2.34-2.75,2.55-4.56.18-1.52-.15-3.03-.93-4.32Z"/></g><g><circle class="cls-6" cx="166.67" cy="60.01" r="4.79"/><path class="cls-7" d="m162.07,62.77c-.61-1.01-.87-2.19-.73-3.39.17-1.42.88-2.7,2-3.58,2.32-1.83,5.7-1.44,7.53.89,1.83,2.32,1.44,5.7-.89,7.53-1.12.89-2.53,1.28-3.95,1.12-1.42-.17-2.7-.88-3.58-2-.14-.18-.27-.37-.39-.56Zm8.2-4.93c-.09-.15-.19-.3-.3-.44-1.44-1.82-4.09-2.13-5.91-.69-.88.7-1.44,1.7-1.57,2.81-.13,1.12.18,2.22.88,3.1.7.88,1.7,1.44,2.81,1.57,1.12.13,2.22-.18,3.1-.88,1.68-1.33,2.08-3.69,1-5.47Z"/></g><g><circle class="cls-6" cx="229.11" cy="33.14" r="17.9"/><path class="cls-2" d="m213.27,42.66c-.87-1.44-1.53-2.99-1.98-4.62-.63-2.3-.81-4.68-.53-7.06.28-2.38,1.01-4.65,2.16-6.75,1.19-2.17,2.79-4.05,4.75-5.6,1.96-1.55,4.16-2.66,6.55-3.32,2.3-.63,4.68-.81,7.06-.53,2.38.28,4.65,1.01,6.75,2.16,2.17,1.19,4.05,2.79,5.6,4.75,1.55,1.96,2.66,4.16,3.32,6.55.63,2.3.81,4.68.53,7.06-.28,2.38-1.01,4.65-2.16,6.75-1.19,2.17-2.79,4.05-4.75,5.6h0c-1.96,1.55-4.16,2.66-6.55,3.32-2.3.63-4.68.81-7.06.53-2.38-.28-4.65-1.01-6.75-2.16-2.17-1.19-4.05-2.79-5.6-4.75-.49-.62-.93-1.26-1.34-1.93Zm30.7-18.45c-.38-.63-.8-1.23-1.26-1.81-5.92-7.5-16.84-8.78-24.33-2.86-3.63,2.87-5.93,6.98-6.47,11.57-.45,3.86.38,7.67,2.35,10.95.38.63.8,1.23,1.26,1.81,2.87,3.63,6.98,5.93,11.57,6.47,4.6.54,9.13-.74,12.76-3.61,3.63-2.87,5.93-6.98,6.47-11.57.45-3.86-.38-7.67-2.35-10.95Z"/></g><g><circle class="cls-6" cx="229.11" cy="33.14" r="15.28"/><path class="cls-5" d="m215.52,41.31c-.75-1.24-1.32-2.56-1.7-3.96-.54-1.98-.7-4.02-.46-6.06.24-2.05.86-3.99,1.85-5.79,1.02-1.86,2.39-3.48,4.07-4.8,1.68-1.33,3.57-2.28,5.62-2.85,1.98-.54,4.02-.7,6.06-.46,2.05.24,3.99.86,5.79,1.85,1.86,1.02,3.48,2.39,4.8,4.07,1.33,1.68,2.28,3.57,2.85,5.62.54,1.98.7,4.02.46,6.06-.24,2.05-.86,3.99-1.85,5.79-1.02,1.86-2.39,3.48-4.07,4.8h0c-1.68,1.33-3.57,2.28-5.62,2.85-1.98.54-4.02.7-6.06.46-2.05-.24-3.99-.86-5.79-1.85-1.86-1.02-3.48-2.39-4.8-4.07-.42-.53-.8-1.08-1.15-1.65Zm26.2-15.74c-.32-.53-.68-1.04-1.07-1.54-5.02-6.36-14.29-7.45-20.65-2.43-3.08,2.43-5.03,5.92-5.49,9.82-.46,3.9.63,7.75,3.06,10.83,2.43,3.08,5.92,5.03,9.82,5.49,3.9.46,7.75-.63,10.83-3.06,3.08-2.43,5.03-5.92,5.49-9.82.39-3.27-.32-6.51-2-9.29Z"/></g><g><circle class="cls-6" cx="229.11" cy="33.14" r="12.66"/><path class="cls-3" d="m217.76,39.96c-.62-1.03-1.1-2.14-1.42-3.31-.45-1.65-.58-3.35-.38-5.06.2-1.71.72-3.33,1.54-4.83.85-1.55,2-2.9,3.4-4.01,1.4-1.11,2.98-1.91,4.69-2.38,1.65-.45,3.35-.58,5.06-.38,1.71.2,3.33.72,4.83,1.54,1.55.85,2.9,2,4.01,3.4,1.11,1.4,1.91,2.98,2.38,4.69.45,1.65.58,3.35.38,5.06-.2,1.71-.72,3.33-1.54,4.83-.85,1.55-2,2.9-3.4,4.01-1.4,1.11-2.98,1.91-4.69,2.38-1.65.45-3.35.58-5.06.38-1.71-.2-3.33-.72-4.83-1.54-1.55-.85-2.9-2-4.01-3.4-.35-.44-.67-.9-.96-1.38Zm21.7-13.04c-.26-.44-.56-.86-.88-1.26-2-2.53-4.87-4.13-8.07-4.51-3.2-.38-6.36.52-8.9,2.52-5.23,4.13-6.12,11.74-1.99,16.97,4.13,5.23,11.74,6.12,16.97,1.99,2.53-2,4.13-4.87,4.51-8.07.32-2.69-.26-5.35-1.64-7.63Z"/></g><g><circle class="cls-6" cx="229.11" cy="33.14" r="10.03"/><path class="cls-4" d="m220.01,38.61c-1.21-2-1.72-4.34-1.44-6.7.33-2.81,1.74-5.33,3.96-7.09,2.22-1.76,5-2.54,7.81-2.21,2.81.33,5.33,1.74,7.09,3.96,1.76,2.22,2.54,5,2.21,7.81-.33,2.81-1.74,5.33-3.96,7.09-2.22,1.76-5,2.54-7.81,2.21-2.81-.33-5.33-1.74-7.09-3.96-.28-.36-.54-.73-.77-1.11Zm17.2-10.33c-.21-.34-.43-.67-.69-.99-3.23-4.09-9.19-4.79-13.28-1.56-3.78,2.98-4.66,8.28-2.24,12.3.2.34.43.66.68.98,3.23,4.09,9.19,4.79,13.28,1.56,1.98-1.57,3.24-3.81,3.53-6.32.25-2.11-.21-4.19-1.28-5.97Z"/></g><g><circle class="cls-6" cx="229.11" cy="33.14" r="7.41"/><path class="cls-7" d="m222.26,37.25c-.91-1.51-1.29-3.27-1.08-5.05.25-2.12,1.31-4.01,2.98-5.34,1.67-1.32,3.76-1.91,5.88-1.66,2.12.25,4.01,1.31,5.34,2.98,1.32,1.67,1.91,3.76,1.66,5.88-.25,2.12-1.31,4.01-2.98,5.34-1.67,1.32-3.76,1.91-5.88,1.66-2.12-.25-4.01-1.31-5.34-2.98-.21-.27-.41-.55-.58-.84Zm12.7-7.63c-.15-.25-.31-.49-.5-.72-1.13-1.43-2.75-2.34-4.56-2.55-1.81-.21-3.6.29-5.03,1.42-1.43,1.13-2.34,2.75-2.55,4.56-.21,1.81.29,3.6,1.42,5.03,1.13,1.43,2.75,2.34,4.56,2.55,1.81.21,3.6-.29,5.03-1.42,1.43-1.13,2.34-2.75,2.55-4.56.18-1.52-.15-3.03-.93-4.32Z"/></g><g><circle class="cls-6" cx="229.11" cy="33.14" r="4.79"/><path class="cls-7" d="m224.51,35.9c-.61-1.01-.87-2.19-.73-3.39.17-1.42.88-2.7,2-3.58,2.32-1.83,5.7-1.44,7.53.89,1.83,2.32,1.44,5.7-.89,7.53-1.12.89-2.53,1.28-3.95,1.12-1.42-.17-2.7-.88-3.58-2-.14-.18-.27-.37-.39-.56Zm8.2-4.93c-.09-.15-.19-.3-.3-.44-1.44-1.82-4.09-2.13-5.91-.69-.88.7-1.44,1.7-1.57,2.81-.13,1.12.18,2.22.88,3.1.7.88,1.7,1.44,2.81,1.57,1.12.13,2.22-.18,3.1-.88,1.68-1.33,2.08-3.69,1-5.47Z"/></g><g><circle class="cls-6" cx="160.59" cy="26.62" r="21.5"/><path class="cls-7" d="m138.44,27.88c-.17-2.99.25-5.93,1.25-8.72.97-2.7,2.43-5.16,4.35-7.31,1.92-2.15,4.2-3.88,6.77-5.15,2.67-1.31,5.54-2.06,8.53-2.23h0c2.99-.17,5.93.25,8.72,1.25,2.7.97,5.16,2.43,7.31,4.35,2.15,1.92,3.88,4.2,5.15,6.77,1.31,2.67,2.06,5.54,2.23,8.53.17,2.99-.25,5.93-1.25,8.72-.97,2.7-2.43,5.16-4.35,7.31-1.92,2.15-4.2,3.88-6.77,5.15-2.67,1.31-5.54,2.06-8.53,2.23-2.99.17-5.93-.25-8.72-1.25-2.7-.97-5.16-2.43-7.31-4.35-2.15-1.92-3.88-4.2-5.15-6.77-.9-1.82-1.53-3.74-1.9-5.73-.17-.92-.28-1.85-.33-2.8Zm36.01-16.78c-4.15-3.7-9.49-5.57-15.04-5.25-5.55.32-10.64,2.77-14.34,6.92-3.7,4.15-5.57,9.49-5.25,15.04.05.89.16,1.77.32,2.63.83,4.52,3.12,8.61,6.6,11.71,4.15,3.7,9.49,5.57,15.04,5.25,11.46-.65,20.25-10.5,19.59-21.96-.05-.89-.16-1.77-.32-2.63-.83-4.52-3.12-8.61-6.6-11.71Z"/></g><g><circle class="cls-6" cx="160.59" cy="26.62" r="18.35"/><path class="cls-7" d="m141.58,27.7c-.15-2.57.22-5.09,1.07-7.49.83-2.32,2.08-4.43,3.73-6.27,1.65-1.85,3.6-3.33,5.81-4.42,2.29-1.12,4.75-1.77,7.32-1.92h0c2.57-.15,5.09.22,7.49,1.07,2.32.83,4.43,2.08,6.28,3.73,1.85,1.65,3.33,3.6,4.42,5.81,1.12,2.29,1.77,4.75,1.92,7.32.15,2.57-.22,5.09-1.07,7.49-.83,2.32-2.08,4.43-3.73,6.28-1.65,1.85-3.6,3.33-5.81,4.42-2.29,1.12-4.75,1.77-7.32,1.92-2.57.15-5.09-.22-7.49-1.07-2.32-.83-4.43-2.08-6.27-3.73-1.85-1.65-3.33-3.6-4.42-5.81-.77-1.56-1.31-3.21-1.63-4.92-.15-.79-.24-1.59-.29-2.4Zm30.77-14.25c-3.52-3.14-8.05-4.72-12.76-4.46-4.71.27-9.03,2.35-12.17,5.87-3.14,3.52-4.72,8.05-4.46,12.76.27,4.71,2.35,9.03,5.87,12.17,3.52,3.14,8.05,4.72,12.76,4.46,9.72-.55,17.18-8.91,16.63-18.63-.04-.76-.13-1.5-.27-2.23-.71-3.83-2.65-7.3-5.6-9.94Z"/></g><g><circle class="cls-6" cx="160.59" cy="26.62" r="15.2"/><path class="cls-7" d="m144.73,27.52c-.12-2.14.18-4.24.9-6.25.69-1.94,1.74-3.7,3.11-5.24,1.37-1.54,3.01-2.78,4.85-3.69,1.91-.94,3.96-1.48,6.11-1.6,2.14-.12,4.24.18,6.25.9,1.94.69,3.7,1.74,5.24,3.11,1.54,1.37,2.78,3.01,3.69,4.85.94,1.91,1.48,3.96,1.6,6.11.12,2.14-.18,4.24-.9,6.25-.69,1.94-1.74,3.7-3.11,5.24-1.37,1.54-3.01,2.78-4.85,3.69-1.91.94-3.96,1.48-6.11,1.6-2.14.12-4.24-.18-6.25-.9-1.94-.69-3.7-1.74-5.24-3.11-1.54-1.37-2.78-3.01-3.69-4.85-.64-1.31-1.1-2.68-1.36-4.1-.12-.66-.2-1.33-.24-2Zm25.53-11.72c-2.89-2.58-6.61-3.88-10.48-3.66-7.99.45-14.11,7.32-13.66,15.31.45,7.99,7.32,14.11,15.31,13.66,3.87-.22,7.42-1.93,10-4.82,2.58-2.89,3.88-6.61,3.66-10.48-.04-.62-.11-1.23-.22-1.83-.58-3.15-2.18-6-4.6-8.17Z"/></g><g><circle class="cls-6" cx="160.59" cy="26.62" r="12.05"/><path class="cls-7" d="m147.87,27.34c-.19-3.4.95-6.67,3.21-9.21,2.27-2.54,5.39-4.04,8.78-4.24,3.4-.19,6.67.95,9.21,3.21,2.54,2.27,4.04,5.39,4.24,8.78.19,3.4-.95,6.67-3.21,9.21-2.27,2.54-5.39,4.04-8.78,4.24-3.4.19-6.67-.95-9.21-3.21-2.13-1.9-3.54-4.41-4.04-7.17-.1-.53-.16-1.07-.19-1.61Zm20.28-9.2c-2.26-2.02-5.18-3.04-8.21-2.87-6.25.36-11.05,5.73-10.69,11.98.03.48.08.96.17,1.42,1.02,5.54,6.04,9.6,11.81,9.27,6.25-.36,11.05-5.73,10.69-11.98-.03-.49-.09-.96-.17-1.44-.45-2.46-1.7-4.7-3.6-6.39Z"/></g><g><circle class="cls-6" cx="160.59" cy="26.62" r="8.9"/><path class="cls-7" d="m151.02,27.16c-.15-2.56.71-5.02,2.42-6.93,1.71-1.91,4.05-3.04,6.61-3.19,2.56-.15,5.02.71,6.93,2.42,1.91,1.71,3.04,4.05,3.19,6.61.15,2.56-.71,5.02-2.42,6.93-1.71,1.91-4.05,3.04-6.61,3.19-2.56.15-5.02-.71-6.93-2.42-1.61-1.43-2.66-3.32-3.04-5.4-.07-.4-.12-.8-.15-1.21Zm15.04-6.67c-1.64-1.46-3.74-2.19-5.93-2.07-2.19.12-4.2,1.09-5.66,2.73-1.46,1.64-2.19,3.74-2.07,5.93.12,2.19,1.09,4.2,2.73,5.66,1.64,1.46,3.74,2.19,5.93,2.07,2.19-.12,4.2-1.09,5.66-2.73,1.46-1.64,2.19-3.74,2.07-5.93-.02-.35-.06-.7-.12-1.04-.33-1.78-1.23-3.39-2.6-4.62Z"/></g><g><circle class="cls-6" cx="160.59" cy="26.62" r="5.75"/><path class="cls-7" d="m154.16,26.98c-.1-1.72.48-3.37,1.63-4.65,1.15-1.28,2.72-2.04,4.44-2.14,3.55-.2,6.59,2.52,6.8,6.06.2,3.55-2.52,6.59-6.06,6.8-1.72.1-3.37-.48-4.65-1.63-1.08-.96-1.79-2.23-2.04-3.63-.05-.27-.08-.54-.1-.81Zm6.14-5.41c-1.35.08-2.59.67-3.48,1.68-.9,1.01-1.35,2.3-1.28,3.65.08,1.35.67,2.59,1.68,3.48,1.01.9,2.3,1.35,3.65,1.28,2.78-.16,4.92-2.55,4.76-5.33-.01-.21-.04-.43-.08-.63-.45-2.47-2.69-4.27-5.26-4.13Z"/></g><g><circle class="cls-6" cx="254.9" cy="67.32" r="21.5"/><path class="cls-7" d="m232.74,68.58c-.17-2.99.25-5.93,1.25-8.72.97-2.7,2.43-5.16,4.35-7.31,1.92-2.15,4.2-3.88,6.77-5.15,2.67-1.31,5.54-2.06,8.53-2.23h0c2.99-.17,5.93.25,8.72,1.25,2.7.97,5.16,2.43,7.31,4.35,2.15,1.92,3.88,4.2,5.15,6.77,1.31,2.67,2.06,5.54,2.23,8.53.17,2.99-.25,5.93-1.25,8.72-.97,2.7-2.43,5.16-4.35,7.31-1.92,2.15-4.2,3.88-6.77,5.15-2.67,1.31-5.54,2.06-8.53,2.23-2.99.17-5.93-.25-8.72-1.25-2.7-.97-5.16-2.43-7.31-4.35-2.15-1.92-3.88-4.2-5.15-6.77-.9-1.82-1.53-3.74-1.9-5.73-.17-.92-.28-1.85-.33-2.8Zm36.01-16.78c-4.15-3.7-9.49-5.57-15.04-5.25-5.55.32-10.64,2.77-14.34,6.92-3.7,4.15-5.57,9.49-5.25,15.04.05.89.16,1.77.32,2.63.83,4.52,3.12,8.61,6.6,11.71,4.15,3.7,9.49,5.57,15.04,5.25,11.46-.65,20.25-10.5,19.59-21.96-.05-.89-.16-1.77-.32-2.63-.83-4.52-3.12-8.61-6.6-11.71Z"/></g><g><circle class="cls-6" cx="254.9" cy="67.32" r="18.35"/><path class="cls-7" d="m235.89,68.4c-.15-2.57.22-5.09,1.07-7.49.83-2.32,2.08-4.43,3.73-6.27,1.65-1.85,3.6-3.33,5.81-4.42,2.29-1.12,4.75-1.77,7.32-1.92h0c2.57-.15,5.09.22,7.49,1.07,2.32.83,4.43,2.08,6.28,3.73,1.85,1.65,3.33,3.6,4.42,5.81,1.12,2.29,1.77,4.75,1.92,7.32.15,2.57-.22,5.09-1.07,7.49-.83,2.32-2.08,4.43-3.73,6.28-1.65,1.85-3.6,3.33-5.81,4.42-2.29,1.12-4.75,1.77-7.32,1.92-2.57.15-5.09-.22-7.49-1.07-2.32-.83-4.43-2.08-6.27-3.73-1.85-1.65-3.33-3.6-4.42-5.81-.77-1.56-1.31-3.21-1.63-4.92-.15-.79-.24-1.59-.29-2.4Zm30.77-14.25c-3.52-3.14-8.05-4.72-12.76-4.46-4.71.27-9.03,2.35-12.17,5.87-3.14,3.52-4.72,8.05-4.46,12.76.27,4.71,2.35,9.03,5.87,12.17,3.52,3.14,8.05,4.72,12.76,4.46,9.72-.55,17.18-8.91,16.63-18.63-.04-.76-.13-1.5-.27-2.23-.71-3.83-2.65-7.3-5.6-9.94Z"/></g><g><circle class="cls-6" cx="254.9" cy="67.32" r="15.2"/><path class="cls-7" d="m239.03,68.22c-.12-2.14.18-4.24.9-6.25.69-1.94,1.74-3.7,3.11-5.24,1.37-1.54,3.01-2.78,4.85-3.69,1.91-.94,3.96-1.48,6.11-1.6,2.14-.12,4.24.18,6.25.9,1.94.69,3.7,1.74,5.24,3.11,1.54,1.37,2.78,3.01,3.69,4.85.94,1.91,1.48,3.96,1.6,6.11.12,2.14-.18,4.24-.9,6.25-.69,1.94-1.74,3.7-3.11,5.24-1.37,1.54-3.01,2.78-4.85,3.69-1.91.94-3.96,1.48-6.11,1.6-2.14.12-4.24-.18-6.25-.9-1.94-.69-3.7-1.74-5.24-3.11-1.54-1.37-2.78-3.01-3.69-4.85-.64-1.31-1.1-2.68-1.36-4.1-.12-.66-.2-1.33-.24-2Zm25.53-11.72c-2.89-2.58-6.61-3.88-10.48-3.66-7.99.45-14.11,7.32-13.66,15.31.45,7.99,7.32,14.11,15.31,13.66,3.87-.22,7.42-1.93,10-4.82,2.58-2.89,3.88-6.61,3.66-10.48-.04-.62-.11-1.23-.22-1.83-.58-3.15-2.18-6-4.6-8.17Z"/></g><g><circle class="cls-6" cx="254.9" cy="67.32" r="12.05"/><path class="cls-7" d="m242.18,68.04c-.19-3.4.95-6.67,3.21-9.21,2.27-2.54,5.39-4.04,8.78-4.24,3.4-.19,6.67.95,9.21,3.21,2.54,2.27,4.04,5.39,4.24,8.78.19,3.4-.95,6.67-3.21,9.21-2.27,2.54-5.39,4.04-8.78,4.24-3.4.19-6.67-.95-9.21-3.21-2.13-1.9-3.54-4.41-4.04-7.17-.1-.53-.16-1.07-.19-1.61Zm20.28-9.2c-2.26-2.02-5.18-3.04-8.21-2.87-6.25.36-11.05,5.73-10.69,11.98.03.48.08.96.17,1.42,1.02,5.54,6.04,9.6,11.81,9.27,6.25-.36,11.05-5.73,10.69-11.98-.03-.49-.09-.96-.17-1.44-.45-2.46-1.7-4.7-3.6-6.39Z"/></g><g><circle class="cls-6" cx="254.9" cy="67.32" r="8.9"/><path class="cls-7" d="m245.32,67.86c-.15-2.56.71-5.02,2.42-6.93,1.71-1.91,4.05-3.04,6.61-3.19,2.56-.15,5.02.71,6.93,2.42,1.91,1.71,3.04,4.05,3.19,6.61.15,2.56-.71,5.02-2.42,6.93-1.71,1.91-4.05,3.04-6.61,3.19-2.56.15-5.02-.71-6.93-2.42-1.61-1.43-2.66-3.32-3.04-5.4-.07-.4-.12-.8-.15-1.21Zm15.04-6.67c-1.64-1.46-3.74-2.19-5.93-2.07-2.19.12-4.2,1.09-5.66,2.73-1.46,1.64-2.19,3.74-2.07,5.93.12,2.19,1.09,4.2,2.73,5.66,1.64,1.46,3.74,2.19,5.93,2.07,2.19-.12,4.2-1.09,5.66-2.73,1.46-1.64,2.19-3.74,2.07-5.93-.02-.35-.06-.7-.12-1.04-.33-1.78-1.23-3.39-2.6-4.62Z"/></g><g><circle class="cls-6" cx="254.9" cy="67.32" r="5.75"/><path class="cls-7" d="m248.47,67.68c-.1-1.72.48-3.37,1.63-4.65,1.15-1.28,2.72-2.04,4.44-2.14,3.55-.2,6.59,2.52,6.8,6.06.2,3.55-2.52,6.59-6.06,6.8-1.72.1-3.37-.48-4.65-1.63-1.08-.96-1.79-2.23-2.04-3.63-.05-.27-.08-.54-.1-.81Zm6.14-5.41c-1.35.08-2.59.67-3.48,1.68-.9,1.01-1.35,2.3-1.28,3.65.08,1.35.67,2.59,1.68,3.48,1.01.9,2.3,1.35,3.65,1.28,2.78-.16,4.92-2.55,4.76-5.33-.01-.21-.04-.43-.08-.63-.45-2.47-2.69-4.27-5.26-4.13Z"/></g><g><circle class="cls-6" cx="227.59" cy="33.6" r="32.55"/><path class="cls-7" d="m194.04,35.51c-.26-4.53.38-8.97,1.89-13.21,1.46-4.09,3.68-7.82,6.58-11.07,2.91-3.26,6.36-5.88,10.26-7.8,4.04-1.98,8.38-3.12,12.91-3.38h0c4.53-.26,8.97.38,13.21,1.89,4.09,1.46,7.82,3.68,11.07,6.58,3.26,2.91,5.88,6.36,7.8,10.26,1.98,4.04,3.12,8.38,3.38,12.91.26,4.53-.38,8.97-1.89,13.21-1.46,4.09-3.68,7.82-6.58,11.07-2.91,3.26-6.36,5.88-10.26,7.8-4.04,1.98-8.38,3.12-12.91,3.38-4.53.26-8.97-.38-13.21-1.89-4.09-1.46-7.82-3.68-11.07-6.58-3.26-2.91-5.88-6.36-7.8-10.26-1.36-2.76-2.32-5.66-2.87-8.67-.26-1.39-.43-2.8-.51-4.24Zm54.53-25.41c-6.28-5.6-14.36-8.43-22.76-7.95-8.4.48-16.11,4.2-21.72,10.48-5.6,6.28-8.43,14.36-7.95,22.76.08,1.35.24,2.68.48,3.98,1.26,6.84,4.73,13.03,10,17.73,6.28,5.6,14.36,8.43,22.76,7.95,17.34-.99,30.65-15.9,29.67-33.24-.08-1.35-.24-2.68-.48-3.98-1.26-6.84-4.73-13.03-10-17.73Z"/></g><g><circle class="cls-6" cx="227.59" cy="33.6" r="27.78"/><path class="cls-7" d="m198.8,35.24c-.22-3.89.33-7.7,1.63-11.33,1.26-3.51,3.16-6.71,5.65-9.5,2.49-2.79,5.45-5.04,8.8-6.69,3.46-1.7,7.19-2.68,11.08-2.9h0c3.89-.22,7.7.33,11.33,1.63,3.51,1.26,6.71,3.16,9.5,5.65,2.79,2.49,5.04,5.45,6.69,8.8,1.7,3.46,2.68,7.19,2.9,11.08.22,3.89-.33,7.7-1.63,11.33-1.26,3.51-3.16,6.71-5.65,9.5-2.49,2.79-5.45,5.04-8.8,6.69-3.46,1.7-7.19,2.68-11.08,2.9-3.89.22-7.7-.33-11.33-1.63-3.51-1.26-6.71-3.16-9.5-5.65-2.79-2.49-5.04-5.45-6.69-8.8-1.16-2.37-1.99-4.86-2.46-7.44-.22-1.19-.37-2.41-.43-3.63Zm46.59-21.58c-5.33-4.75-12.19-7.15-19.32-6.75-7.13.41-13.67,3.56-18.43,8.89-4.75,5.33-7.15,12.19-6.75,19.32.41,7.13,3.56,13.67,8.89,18.43,5.33,4.75,12.19,7.15,19.32,6.74,14.72-.84,26.01-13.49,25.17-28.21-.06-1.14-.2-2.27-.4-3.38-1.07-5.8-4.01-11.06-8.49-15.05Z"/></g><g><circle class="cls-6" cx="227.59" cy="33.6" r="23.01"/><path class="cls-7" d="m203.56,34.97c-.18-3.24.27-6.43,1.36-9.46,1.05-2.93,2.63-5.6,4.71-7.93,2.08-2.33,4.55-4.21,7.34-5.58,2.89-1.42,6-2.24,9.24-2.42,3.24-.18,6.43.27,9.46,1.36,2.93,1.05,5.6,2.63,7.93,4.71,2.33,2.08,4.21,4.55,5.58,7.34,1.42,2.89,2.24,6,2.42,9.24.18,3.24-.27,6.43-1.36,9.46-1.05,2.93-2.63,5.6-4.71,7.93-2.08,2.33-4.55,4.21-7.34,5.58-2.89,1.42-6,2.24-9.24,2.42-3.24.18-6.43-.27-9.46-1.36-2.93-1.05-5.6-2.63-7.93-4.71-2.33-2.08-4.21-4.55-5.58-7.34-.97-1.98-1.66-4.06-2.06-6.21-.18-1-.3-2.01-.36-3.03Zm38.65-17.75c-4.38-3.91-10.01-5.87-15.87-5.54-12.09.69-21.37,11.08-20.68,23.17.69,12.09,11.08,21.37,23.17,20.68,5.86-.33,11.23-2.93,15.14-7.3,3.91-4.38,5.87-10.01,5.54-15.87-.05-.94-.16-1.87-.33-2.78-.88-4.77-3.3-9.08-6.97-12.36Z"/></g><g><circle class="cls-6" cx="227.59" cy="33.6" r="18.24"/><path class="cls-7" d="m208.33,34.7c-.29-5.14,1.44-10.1,4.87-13.94,3.43-3.84,8.15-6.12,13.3-6.42,5.14-.29,10.1,1.44,13.94,4.87,3.84,3.43,6.12,8.15,6.42,13.3.29,5.14-1.44,10.1-4.87,13.94-3.43,3.84-8.15,6.12-13.3,6.42-5.14.29-10.1-1.44-13.94-4.87-3.23-2.88-5.35-6.67-6.12-10.86-.15-.8-.25-1.61-.29-2.44Zm30.71-13.92c-3.43-3.06-7.84-4.6-12.42-4.34-9.46.54-16.73,8.68-16.19,18.14.04.73.13,1.45.26,2.15,1.55,8.39,9.15,14.53,17.88,14.04,9.46-.54,16.73-8.68,16.19-18.14-.04-.74-.13-1.46-.26-2.17-.69-3.73-2.58-7.11-5.46-9.68Z"/></g><g><circle class="cls-6" cx="227.59" cy="33.6" r="13.47"/><path class="cls-7" d="m213.09,34.43c-.22-3.87,1.08-7.6,3.66-10.49,2.58-2.89,6.14-4.61,10.01-4.83,3.87-.22,7.6,1.08,10.49,3.66,2.89,2.58,4.61,6.14,4.83,10.01.22,3.87-1.08,7.6-3.66,10.49-2.58,2.89-6.14,4.61-10.01,4.83-3.87.22-7.6-1.08-10.49-3.66-2.43-2.17-4.03-5.02-4.61-8.17-.11-.6-.18-1.22-.22-1.84Zm22.77-10.09c-2.48-2.21-5.66-3.32-8.98-3.13-3.31.19-6.35,1.66-8.56,4.13s-3.32,5.66-3.13,8.98c.19,3.31,1.66,6.35,4.13,8.56,2.48,2.21,5.66,3.32,8.98,3.13,3.31-.19,6.35-1.66,8.56-4.13,2.21-2.48,3.32-5.66,3.13-8.98-.03-.53-.09-1.06-.19-1.57-.5-2.7-1.86-5.14-3.94-6.99Z"/></g><g><circle class="cls-6" cx="227.59" cy="33.6" r="8.7"/><path class="cls-7" d="m217.85,34.16c-.15-2.6.73-5.1,2.46-7.05,1.73-1.94,4.12-3.09,6.72-3.24,5.37-.31,9.98,3.81,10.29,9.18.31,5.37-3.81,9.98-9.18,10.29-2.6.15-5.1-.73-7.05-2.46-1.63-1.46-2.71-3.37-3.09-5.49-.07-.4-.12-.82-.15-1.23Zm9.3-8.19c-2.04.12-3.91,1.02-5.27,2.54-1.36,1.52-2.05,3.49-1.93,5.53.12,2.04,1.02,3.91,2.54,5.27,1.52,1.36,3.49,2.05,5.53,1.93,4.21-.24,7.44-3.86,7.21-8.07-.02-.33-.06-.64-.11-.96-.69-3.73-4.07-6.47-7.96-6.25Z"/></g><g><circle class="cls-6" cx="186.14" cy="77.92" r="21.5"/><path class="cls-7" d="m163.98,79.18c-.17-2.99.25-5.93,1.25-8.72.97-2.7,2.43-5.16,4.35-7.31,1.92-2.15,4.2-3.88,6.77-5.15,2.67-1.31,5.54-2.06,8.53-2.23h0c2.99-.17,5.93.25,8.72,1.25,2.7.97,5.16,2.43,7.31,4.35,2.15,1.92,3.88,4.2,5.15,6.77,1.31,2.67,2.06,5.54,2.23,8.53.17,2.99-.25,5.93-1.25,8.72-.97,2.7-2.43,5.16-4.35,7.31-1.92,2.15-4.2,3.88-6.77,5.15-2.67,1.31-5.54,2.06-8.53,2.23-2.99.17-5.93-.25-8.72-1.25-2.7-.97-5.16-2.43-7.31-4.35s-3.88-4.2-5.15-6.77c-.9-1.82-1.53-3.74-1.9-5.73-.17-.92-.28-1.85-.33-2.8Zm36.01-16.78c-4.15-3.7-9.49-5.57-15.04-5.25-5.55.32-10.64,2.77-14.34,6.92-3.7,4.15-5.57,9.49-5.25,15.04.05.89.16,1.77.32,2.63.83,4.52,3.12,8.61,6.6,11.71,4.15,3.7,9.49,5.57,15.04,5.25,11.46-.65,20.25-10.5,19.59-21.96-.05-.89-.16-1.77-.32-2.63-.83-4.52-3.12-8.61-6.6-11.71Z"/></g><g><circle class="cls-6" cx="186.14" cy="77.92" r="18.35"/><path class="cls-7" d="m167.13,79c-.15-2.57.22-5.09,1.07-7.49.83-2.32,2.08-4.43,3.73-6.27,1.65-1.85,3.6-3.33,5.81-4.42,2.29-1.12,4.75-1.77,7.32-1.92h0c2.57-.15,5.09.22,7.49,1.07,2.32.83,4.43,2.08,6.28,3.73,1.85,1.65,3.33,3.6,4.42,5.81,1.12,2.29,1.77,4.75,1.92,7.32.15,2.57-.22,5.09-1.07,7.49-.83,2.32-2.08,4.43-3.73,6.28-1.65,1.85-3.6,3.33-5.81,4.42-2.29,1.12-4.75,1.77-7.32,1.92-2.57.15-5.09-.22-7.49-1.07-2.32-.83-4.43-2.08-6.27-3.73-1.85-1.65-3.33-3.6-4.42-5.81-.77-1.56-1.31-3.21-1.63-4.92-.15-.79-.24-1.59-.29-2.4Zm30.77-14.25c-3.52-3.14-8.05-4.72-12.76-4.46-4.71.27-9.03,2.35-12.17,5.87-3.14,3.52-4.72,8.05-4.46,12.76.27,4.71,2.35,9.03,5.87,12.17,3.52,3.14,8.05,4.72,12.76,4.46,9.72-.55,17.18-8.91,16.63-18.63-.04-.76-.13-1.5-.27-2.23-.71-3.83-2.65-7.3-5.6-9.94Z"/></g><g><circle class="cls-6" cx="186.14" cy="77.92" r="15.2"/><path class="cls-7" d="m170.27,78.82c-.12-2.14.18-4.24.9-6.25.69-1.94,1.74-3.7,3.11-5.24,1.37-1.54,3.01-2.78,4.85-3.69,1.91-.94,3.96-1.48,6.11-1.6,2.14-.12,4.24.18,6.25.9,1.94.69,3.7,1.74,5.24,3.11,1.54,1.37,2.78,3.01,3.69,4.85.94,1.91,1.48,3.96,1.6,6.11.12,2.14-.18,4.24-.9,6.25-.69,1.94-1.74,3.7-3.11,5.24-1.37,1.54-3.01,2.78-4.85,3.69-1.91.94-3.96,1.48-6.11,1.6-2.14.12-4.24-.18-6.25-.9-1.94-.69-3.7-1.74-5.24-3.11-1.54-1.37-2.78-3.01-3.69-4.85-.64-1.31-1.1-2.68-1.36-4.1-.12-.66-.2-1.33-.24-2Zm25.53-11.72c-2.89-2.58-6.61-3.88-10.48-3.66-7.99.45-14.11,7.32-13.66,15.31.45,7.99,7.32,14.11,15.31,13.66,3.87-.22,7.42-1.93,10-4.82,2.58-2.89,3.88-6.61,3.66-10.48-.04-.62-.11-1.23-.22-1.83-.58-3.15-2.18-6-4.6-8.17Z"/></g><g><circle class="cls-6" cx="186.14" cy="77.92" r="12.05"/><path class="cls-7" d="m173.42,78.64c-.19-3.4.95-6.67,3.21-9.21,2.27-2.54,5.39-4.04,8.78-4.24,3.4-.19,6.67.95,9.21,3.21,2.54,2.27,4.04,5.39,4.24,8.78.19,3.4-.95,6.67-3.21,9.21-2.27,2.54-5.39,4.04-8.78,4.24-3.4.19-6.67-.95-9.21-3.21-2.13-1.9-3.54-4.41-4.04-7.17-.1-.53-.16-1.07-.19-1.61Zm20.28-9.2c-2.26-2.02-5.18-3.04-8.21-2.87-6.25.36-11.05,5.73-10.69,11.98.03.48.08.96.17,1.42,1.02,5.54,6.04,9.6,11.81,9.27,6.25-.36,11.05-5.73,10.69-11.98-.03-.49-.09-.96-.17-1.44-.45-2.46-1.7-4.7-3.6-6.39Z"/></g><g><circle class="cls-6" cx="186.14" cy="77.92" r="8.9"/><path class="cls-7" d="m176.57,78.47c-.15-2.56.71-5.02,2.42-6.93,1.71-1.91,4.05-3.04,6.61-3.19,2.56-.15,5.02.71,6.93,2.42,1.91,1.71,3.04,4.05,3.19,6.61.15,2.56-.71,5.02-2.42,6.93-1.71,1.91-4.05,3.04-6.61,3.19-2.56.15-5.02-.71-6.93-2.42-1.61-1.43-2.66-3.32-3.04-5.4-.07-.4-.12-.8-.15-1.21Zm15.04-6.67c-1.64-1.46-3.74-2.19-5.93-2.07-2.19.12-4.2,1.09-5.66,2.73-1.46,1.64-2.19,3.74-2.07,5.93.12,2.19,1.09,4.2,2.73,5.66,1.64,1.46,3.74,2.19,5.93,2.07,2.19-.12,4.2-1.09,5.66-2.73,1.46-1.64,2.19-3.74,2.07-5.93-.02-.35-.06-.7-.12-1.04-.33-1.78-1.23-3.39-2.6-4.62Z"/></g><g><circle class="cls-6" cx="186.14" cy="77.92" r="5.75"/><path class="cls-7" d="m179.71,78.29c-.1-1.72.48-3.37,1.63-4.65,1.15-1.28,2.72-2.04,4.44-2.14,3.55-.2,6.59,2.52,6.8,6.06.2,3.55-2.52,6.59-6.06,6.8-1.72.1-3.37-.48-4.65-1.63-1.08-.96-1.79-2.23-2.04-3.63-.05-.27-.08-.54-.1-.81Zm6.14-5.41c-1.35.08-2.59.67-3.48,1.68-.9,1.01-1.35,2.3-1.28,3.65.08,1.35.67,2.59,1.68,3.48,1.01.9,2.3,1.35,3.65,1.28,2.78-.16,4.92-2.55,4.76-5.33-.01-.21-.04-.43-.08-.63-.45-2.47-2.69-4.27-5.26-4.13Z"/></g><g><circle class="cls-6" cx="183.44" cy="107.63" r="21.5"/><path class="cls-7" d="m164.41,119.06c-1.04-1.73-1.84-3.59-2.38-5.55-.76-2.77-.98-5.62-.64-8.48.34-2.86,1.21-5.59,2.59-8.1,1.43-2.6,3.35-4.87,5.7-6.72,2.35-1.86,5-3.2,7.86-3.98,2.77-.76,5.62-.98,8.48-.64,2.86.34,5.59,1.21,8.1,2.59,2.6,1.43,4.87,3.35,6.72,5.7,1.86,2.35,3.2,5,3.98,7.86.76,2.77.98,5.62.64,8.48-.34,2.86-1.21,5.59-2.59,8.1-1.43,2.6-3.35,4.87-5.7,6.72h0c-2.35,1.86-5,3.2-7.86,3.98-2.77.76-5.62.98-8.48.64-2.86-.34-5.59-1.21-8.1-2.59-2.6-1.43-4.87-3.35-6.72-5.7-.59-.74-1.12-1.52-1.61-2.32Zm36.86-22.16c-.45-.75-.96-1.48-1.51-2.18-7.11-9.01-20.22-10.55-29.23-3.44-4.36,3.44-7.12,8.38-7.77,13.9-.54,4.63.45,9.21,2.83,13.15.45.75.96,1.48,1.51,2.18,3.44,4.36,8.38,7.12,13.9,7.77,5.52.65,10.96-.89,15.32-4.33,4.36-3.44,7.12-8.38,7.77-13.9.54-4.63-.45-9.21-2.83-13.15Z"/></g><g><circle class="cls-6" cx="183.44" cy="107.63" r="18.35"/><path class="cls-7" d="m167.11,117.44c-.9-1.48-1.58-3.08-2.04-4.76-.65-2.37-.84-4.82-.55-7.28.29-2.46,1.04-4.8,2.22-6.95,1.23-2.23,2.87-4.18,4.89-5.77,2.02-1.59,4.29-2.74,6.75-3.42,2.37-.65,4.82-.84,7.28-.55,2.46.29,4.8,1.04,6.95,2.22,2.23,1.23,4.18,2.87,5.77,4.89,1.59,2.02,2.74,4.29,3.42,6.75.65,2.37.84,4.82.55,7.28-.29,2.46-1.04,4.8-2.22,6.95-1.23,2.23-2.87,4.18-4.89,5.77h0c-2.02,1.59-4.29,2.74-6.75,3.42-2.37.65-4.82.84-7.28.55-2.46-.29-4.8-1.04-6.95-2.22-2.23-1.23-4.18-2.87-5.77-4.89-.5-.64-.96-1.3-1.38-1.99Zm31.46-18.91c-.38-.64-.81-1.25-1.28-1.85-6.03-7.64-17.16-8.95-24.8-2.92-3.7,2.92-6.04,7.11-6.59,11.8-.55,4.68.76,9.3,3.68,13,2.92,3.7,7.11,6.04,11.8,6.59,4.68.55,9.3-.76,13-3.68,3.7-2.92,6.04-7.11,6.59-11.8.46-3.93-.38-7.82-2.4-11.16Z"/></g><g><circle class="cls-6" cx="183.44" cy="107.63" r="15.2"/><path class="cls-7" d="m169.82,115.82c-.75-1.24-1.32-2.57-1.7-3.97-.54-1.98-.7-4.03-.46-6.08.24-2.05.86-4,1.85-5.8,1.02-1.87,2.4-3.48,4.08-4.81s3.58-2.29,5.63-2.85c1.98-.54,4.03-.7,6.08-.46,2.05.24,4,.86,5.8,1.85,1.87,1.02,3.48,2.4,4.81,4.08,1.33,1.68,2.29,3.58,2.85,5.63.54,1.98.7,4.03.46,6.08-.24,2.05-.86,4-1.85,5.8-1.02,1.87-2.4,3.48-4.08,4.81-1.68,1.33-3.58,2.29-5.63,2.85-1.98.54-4.03.7-6.08.46-2.05-.24-4-.86-5.8-1.85-1.87-1.02-3.48-2.4-4.81-4.08-.42-.53-.8-1.09-1.15-1.66Zm26.06-15.66c-.32-.52-.67-1.03-1.05-1.52-2.4-3.04-5.84-4.97-9.69-5.42-3.85-.45-7.64.62-10.68,3.02-6.28,4.96-7.35,14.1-2.4,20.38,4.96,6.28,14.1,7.35,20.38,2.4,3.04-2.4,4.97-5.84,5.42-9.69.38-3.23-.32-6.42-1.97-9.17Z"/></g><g><circle class="cls-6" cx="183.44" cy="107.63" r="12.05"/><path class="cls-7" d="m172.51,114.19c-1.45-2.41-2.06-5.21-1.73-8.05.4-3.38,2.09-6.4,4.76-8.51,2.67-2.11,6-3.05,9.38-2.65,3.38.4,6.4,2.09,8.51,4.76,2.11,2.67,3.05,6,2.65,9.38-.4,3.38-2.09,6.4-4.76,8.51-2.67,2.11-6,3.05-9.38,2.65-3.38-.4-6.4-2.09-8.51-4.76-.34-.43-.65-.87-.92-1.33Zm20.66-12.41c-.25-.41-.52-.81-.82-1.19-3.88-4.91-11.04-5.76-15.95-1.88-4.53,3.58-5.6,9.95-2.69,14.77.24.4.52.8.81,1.18,3.88,4.91,11.04,5.76,15.95,1.88,2.38-1.88,3.89-4.57,4.24-7.59.3-2.53-.25-5.03-1.54-7.17Z"/></g><g><circle class="cls-6" cx="183.44" cy="107.63" r="8.9"/><path class="cls-7" d="m175.21,112.57c-1.09-1.81-1.55-3.92-1.3-6.06.3-2.54,1.57-4.82,3.58-6.41,2.01-1.59,4.52-2.3,7.06-2,2.54.3,4.82,1.57,6.41,3.58,1.59,2.01,2.3,4.52,2,7.06-.3,2.54-1.57,4.82-3.58,6.41-2.01,1.59-4.52,2.3-7.06,2-2.54-.3-4.82-1.57-6.41-3.58-.25-.32-.49-.66-.7-1Zm15.26-9.17c-.18-.3-.38-.58-.6-.86-1.36-1.72-3.3-2.81-5.48-3.06-2.18-.26-4.32.35-6.04,1.71-1.72,1.36-2.81,3.3-3.06,5.48-.26,2.18.35,4.32,1.71,6.04,1.36,1.72,3.3,2.81,5.48,3.06,2.18.26,4.32-.35,6.04-1.71,1.72-1.36,2.81-3.3,3.06-5.48.21-1.83-.18-3.63-1.11-5.18Z"/></g><g><circle class="cls-6" cx="183.44" cy="107.63" r="5.75"/><path class="cls-7" d="m177.92,110.94c-.73-1.22-1.04-2.63-.87-4.07.2-1.71,1.06-3.24,2.41-4.3,2.79-2.2,6.85-1.72,9.05,1.06,2.2,2.79,1.72,6.85-1.06,9.05-1.35,1.07-3.03,1.54-4.74,1.34-1.71-.2-3.24-1.06-4.3-2.41-.17-.22-.33-.44-.47-.67Zm9.85-5.93c-.11-.18-.23-.35-.36-.52-1.73-2.19-4.91-2.56-7.1-.83-1.06.84-1.73,2.04-1.89,3.38-.16,1.34.22,2.66,1.05,3.72.84,1.06,2.04,1.73,3.38,1.89,1.34.16,2.66-.22,3.72-1.05,2.02-1.59,2.49-4.43,1.2-6.58Z"/></g><g><g><circle class="cls-6" cx="106.33" cy="37.29" r="21.5"/><path class="cls-7" d="m127.69,31.24c.82,2.88,1.04,5.84.68,8.79-.36,2.85-1.25,5.57-2.65,8.08-1.41,2.52-3.25,4.7-5.49,6.5-2.32,1.86-4.95,3.22-7.84,4.03h0c-2.88.82-5.84,1.04-8.79.68-2.85-.36-5.57-1.25-8.08-2.65-2.52-1.41-4.7-3.25-6.5-5.49-1.86-2.32-3.22-4.95-4.03-7.84-.82-2.88-1.04-5.84-.68-8.79.36-2.85,1.25-5.57,2.65-8.08,1.41-2.52,3.25-4.7,5.49-6.5,2.32-1.86,4.95-3.22,7.84-4.03,2.88-.82,5.84-1.04,8.79-.68,2.85.36,5.57,1.25,8.08,2.65,2.52,1.41,4.7,3.25,6.5,5.49,1.27,1.58,2.31,3.32,3.1,5.18.37.86.68,1.75.94,2.66Zm-31.5,24.22c4.85,2.71,10.47,3.37,15.82,1.85,5.35-1.52,9.79-5.02,12.49-9.87,2.71-4.85,3.37-10.47,1.85-15.82-.24-.86-.54-1.69-.88-2.5-1.79-4.23-4.92-7.72-8.99-10-4.85-2.71-10.47-3.37-15.82-1.85-11.04,3.13-17.48,14.65-14.35,25.69.24.86.54,1.69.88,2.5,1.79,4.23,4.92,7.72,8.99,10Z"/></g><g><circle class="cls-6" cx="106.33" cy="37.29" r="18.35"/><path class="cls-7" d="m124.66,32.1c.7,2.47.9,5.01.58,7.54-.3,2.44-1.07,4.78-2.28,6.94-1.21,2.16-2.79,4.04-4.71,5.58-1.99,1.6-4.25,2.76-6.72,3.46h0c-2.47.7-5.01.9-7.54.58-2.44-.3-4.78-1.07-6.94-2.28-2.16-1.21-4.04-2.79-5.58-4.71-1.6-1.99-2.76-4.25-3.46-6.72-.7-2.47-.9-5.01-.58-7.54.3-2.44,1.07-4.78,2.28-6.94,1.21-2.16,2.79-4.04,4.71-5.58,1.99-1.6,4.25-2.76,6.72-3.46,2.47-.7,5.01-.9,7.54-.58,2.44.3,4.78,1.07,6.94,2.28,2.16,1.21,4.04,2.79,5.58,4.71,1.09,1.36,1.98,2.85,2.66,4.44.31.74.58,1.5.8,2.28Zm-26.93,20.61c4.12,2.3,8.88,2.86,13.42,1.57,4.54-1.29,8.3-4.26,10.6-8.38,2.3-4.12,2.86-8.88,1.57-13.42-1.29-4.54-4.26-8.3-8.38-10.6-4.12-2.3-8.88-2.86-13.42-1.57-9.37,2.65-14.83,12.43-12.18,21.8.21.73.46,1.44.75,2.12,1.52,3.59,4.18,6.55,7.63,8.48Z"/></g><g><circle class="cls-6" cx="106.33" cy="37.29" r="15.2"/><path class="cls-7" d="m121.62,32.96c.58,2.06.75,4.18.48,6.29-.25,2.04-.89,3.99-1.9,5.79-1.01,1.8-2.33,3.37-3.93,4.65-1.66,1.33-3.55,2.3-5.61,2.89-2.06.58-4.18.75-6.29.48-2.04-.25-3.99-.89-5.79-1.9-1.8-1.01-3.37-2.33-4.65-3.93-1.33-1.66-2.3-3.55-2.89-5.61-.58-2.06-.75-4.18-.48-6.29.25-2.04.89-3.99,1.9-5.79,1.01-1.8,2.33-3.37,3.93-4.65,1.66-1.33,3.55-2.3,5.61-2.89,2.06-.58,4.18-.75,6.29-.48,2.04.25,3.99.89,5.79,1.9,1.8,1.01,3.37,2.33,4.65,3.93.91,1.14,1.65,2.38,2.22,3.71.26.62.49,1.25.67,1.9Zm-22.36,17c3.38,1.89,7.3,2.35,11.03,1.29,7.7-2.18,12.18-10.22,10-17.91-2.18-7.7-10.22-12.18-17.91-10-3.73,1.06-6.82,3.5-8.71,6.88-1.89,3.38-2.35,7.3-1.29,11.03.17.6.37,1.18.61,1.74,1.25,2.95,3.43,5.38,6.27,6.97Z"/></g><g><circle class="cls-6" cx="106.33" cy="37.29" r="12.05"/><path class="cls-7" d="m118.59,33.81c.93,3.27.52,6.71-1.13,9.69-1.66,2.97-4.38,5.12-7.65,6.05-3.27.93-6.71.52-9.69-1.13-2.97-1.66-5.12-4.38-6.05-7.65-.93-3.27-.52-6.71,1.13-9.69,1.66-2.97,4.38-5.12,7.65-6.05,3.27-.93,6.71-.52,9.69,1.13,2.5,1.39,4.41,3.53,5.51,6.12.21.49.39,1.01.54,1.53Zm-17.8,13.39c2.65,1.48,5.71,1.84,8.63,1.01,6.02-1.71,9.54-8,7.83-14.02-.13-.47-.29-.92-.48-1.35-2.2-5.19-7.99-8.06-13.55-6.48-6.02,1.71-9.54,8-7.83,14.02.13.47.29.92.48,1.36.98,2.31,2.69,4.21,4.91,5.45Z"/></g><g><circle class="cls-6" cx="106.33" cy="37.29" r="8.9"/><path class="cls-7" d="m115.56,34.67c.7,2.46.4,5.05-.85,7.29-1.25,2.24-3.29,3.85-5.76,4.55-2.46.7-5.05.4-7.29-.85-2.24-1.25-3.85-3.29-4.55-5.76-.7-2.46-.4-5.05.85-7.29,1.25-2.24,3.29-3.85,5.76-4.55,2.46-.7,5.05-.4,7.29.85,1.88,1.05,3.32,2.66,4.15,4.61.16.37.29.76.41,1.15Zm-13.23,9.78c1.91,1.07,4.13,1.33,6.24.73,2.11-.6,3.86-1.98,4.93-3.89,1.07-1.91,1.33-4.13.73-6.24-.6-2.11-1.98-3.86-3.89-4.93-1.91-1.07-4.13-1.33-6.24-.73-2.11.6-3.86,1.98-4.93,3.89-1.07,1.91-1.33,4.13-.73,6.24.1.34.21.67.35.99.71,1.67,1.94,3.04,3.55,3.94Z"/></g><g><circle class="cls-6" cx="106.33" cy="37.29" r="5.75"/><path class="cls-7" d="m112.53,35.53c.47,1.66.27,3.39-.57,4.9-.84,1.5-2.21,2.59-3.87,3.06-3.42.97-6.98-1.02-7.95-4.44-.97-3.42,1.02-6.98,4.44-7.95,1.66-.47,3.39-.27,4.9.57,1.26.7,2.23,1.79,2.78,3.09.11.25.2.51.27.77Zm-4.82,6.62c1.3-.37,2.38-1.22,3.03-2.4.66-1.18.82-2.54.45-3.84-.37-1.3-1.22-2.38-2.4-3.03-1.18-.66-2.54-.82-3.84-.45-2.68.76-4.24,3.56-3.48,6.24.06.21.13.41.21.6.98,2.31,3.55,3.59,6.03,2.88Z"/></g><g><circle class="cls-6" cx="122.19" cy="73.83" r="21.5"/><path class="cls-7" d="m143.54,67.78c.82,2.88,1.04,5.84.68,8.79-.36,2.85-1.25,5.57-2.65,8.08-1.41,2.52-3.25,4.7-5.49,6.5-2.32,1.86-4.95,3.22-7.84,4.03h0c-2.88.82-5.84,1.04-8.79.68-2.85-.36-5.57-1.25-8.08-2.65-2.52-1.41-4.7-3.25-6.5-5.49-1.86-2.32-3.22-4.95-4.03-7.84-.82-2.88-1.04-5.84-.68-8.79.36-2.85,1.25-5.57,2.65-8.08,1.41-2.52,3.25-4.7,5.49-6.5,2.32-1.86,4.95-3.22,7.84-4.03,2.88-.82,5.84-1.04,8.79-.68,2.85.36,5.57,1.25,8.08,2.65,2.52,1.41,4.7,3.25,6.5,5.49,1.27,1.58,2.31,3.32,3.1,5.18.37.86.68,1.75.94,2.66Zm-31.5,24.22c4.85,2.71,10.47,3.37,15.82,1.85,5.35-1.52,9.79-5.02,12.49-9.87,2.71-4.85,3.37-10.47,1.85-15.82-.24-.86-.54-1.69-.88-2.5-1.79-4.23-4.92-7.72-8.99-10-4.85-2.71-10.47-3.37-15.82-1.85-11.04,3.13-17.48,14.65-14.35,25.69.24.86.54,1.69.88,2.5,1.79,4.23,4.92,7.72,8.99,10Z"/></g><g><circle class="cls-6" cx="122.19" cy="73.83" r="18.35"/><path class="cls-7" d="m140.51,68.64c.7,2.47.9,5.01.58,7.54-.3,2.44-1.07,4.78-2.28,6.94-1.21,2.16-2.79,4.04-4.71,5.58-1.99,1.6-4.25,2.76-6.72,3.46h0c-2.47.7-5.01.9-7.54.58-2.44-.3-4.78-1.07-6.94-2.28-2.16-1.21-4.04-2.79-5.58-4.71-1.6-1.99-2.76-4.25-3.46-6.72-.7-2.47-.9-5.01-.58-7.54.3-2.44,1.07-4.78,2.28-6.94,1.21-2.16,2.79-4.04,4.71-5.58,1.99-1.6,4.25-2.76,6.72-3.46,2.47-.7,5.01-.9,7.54-.58,2.44.3,4.78,1.07,6.94,2.28,2.16,1.21,4.04,2.79,5.58,4.71,1.09,1.36,1.98,2.85,2.66,4.44.31.74.58,1.5.8,2.28Zm-26.93,20.61c4.12,2.3,8.88,2.86,13.42,1.57,4.54-1.29,8.3-4.26,10.6-8.38,2.3-4.12,2.86-8.88,1.57-13.42-1.29-4.54-4.26-8.3-8.38-10.6-4.12-2.3-8.88-2.86-13.42-1.57-9.37,2.65-14.83,12.43-12.18,21.8.21.73.46,1.44.75,2.12,1.52,3.59,4.18,6.55,7.63,8.48Z"/></g><g><circle class="cls-6" cx="122.19" cy="73.83" r="15.2"/><path class="cls-7" d="m137.48,69.5c.58,2.06.75,4.18.48,6.29-.25,2.04-.89,3.99-1.9,5.79-1.01,1.8-2.33,3.37-3.93,4.65-1.66,1.33-3.55,2.3-5.61,2.89-2.06.58-4.18.75-6.29.48-2.04-.25-3.99-.89-5.79-1.9-1.8-1.01-3.37-2.33-4.65-3.93-1.33-1.66-2.3-3.55-2.89-5.61-.58-2.06-.75-4.18-.48-6.29.25-2.04.89-3.99,1.9-5.79,1.01-1.8,2.33-3.37,3.93-4.65,1.66-1.33,3.55-2.3,5.61-2.89s4.18-.75,6.29-.48c2.04.25,3.99.89,5.79,1.9,1.8,1.01,3.37,2.33,4.65,3.93.91,1.14,1.65,2.38,2.22,3.71.26.62.49,1.25.67,1.9Zm-22.36,17c3.38,1.89,7.3,2.35,11.03,1.29,7.7-2.18,12.18-10.22,10-17.91-2.18-7.7-10.22-12.18-17.91-10-3.73,1.06-6.82,3.5-8.71,6.88-1.89,3.38-2.35,7.3-1.29,11.03.17.6.37,1.18.61,1.74,1.25,2.95,3.43,5.38,6.27,6.97Z"/></g><g><circle class="cls-6" cx="122.19" cy="73.83" r="12.05"/><path class="cls-7" d="m134.45,70.36c.93,3.27.52,6.71-1.13,9.69-1.66,2.97-4.38,5.12-7.65,6.05-3.27.93-6.71.52-9.69-1.13-2.97-1.66-5.12-4.38-6.05-7.65-.93-3.27-.52-6.71,1.13-9.69,1.66-2.97,4.38-5.12,7.65-6.05,3.27-.93,6.71-.52,9.69,1.13,2.5,1.39,4.41,3.53,5.51,6.12.21.49.39,1.01.54,1.53Zm-17.8,13.39c2.65,1.48,5.71,1.84,8.63,1.01,6.02-1.71,9.54-8,7.83-14.02-.13-.47-.29-.92-.48-1.35-2.2-5.19-7.99-8.06-13.55-6.48-6.02,1.71-9.54,8-7.83,14.02.13.47.29.92.48,1.36.98,2.31,2.69,4.21,4.91,5.45Z"/></g><g><circle class="cls-6" cx="122.19" cy="73.83" r="8.9"/><path class="cls-7" d="m131.42,71.22c.7,2.46.4,5.05-.85,7.29-1.25,2.24-3.29,3.85-5.76,4.55-2.46.7-5.05.4-7.29-.85-2.24-1.25-3.85-3.29-4.55-5.76-.7-2.46-.4-5.05.85-7.29,1.25-2.24,3.29-3.85,5.76-4.55,2.46-.7,5.05-.4,7.29.85,1.88,1.05,3.32,2.66,4.15,4.61.16.37.29.76.41,1.15Zm-13.23,9.78c1.91,1.07,4.13,1.33,6.24.73,2.11-.6,3.86-1.98,4.93-3.89,1.07-1.91,1.33-4.13.73-6.24-.6-2.11-1.98-3.86-3.89-4.93-1.91-1.07-4.13-1.33-6.24-.73-2.11.6-3.86,1.98-4.93,3.89-1.07,1.91-1.33,4.13-.73,6.24.1.34.21.67.35.99.71,1.67,1.94,3.04,3.55,3.94Z"/></g><g><circle class="cls-6" cx="122.19" cy="73.83" r="5.75"/><path class="cls-7" d="m128.39,72.08c.47,1.66.27,3.39-.57,4.9-.84,1.5-2.21,2.59-3.87,3.06-3.42.97-6.98-1.02-7.95-4.44-.97-3.42,1.02-6.98,4.44-7.95,1.66-.47,3.39-.27,4.9.57,1.26.7,2.23,1.79,2.78,3.09.11.25.2.51.27.77Zm-4.82,6.62c1.3-.37,2.38-1.22,3.03-2.4.66-1.18.82-2.54.45-3.84-.37-1.3-1.22-2.38-2.4-3.03-1.18-.66-2.54-.82-3.84-.45-2.68.76-4.24,3.56-3.48,6.24.06.21.13.41.21.6.98,2.31,3.55,3.59,6.03,2.88Z"/></g><g><circle class="cls-6" cx="74.29" cy="119" r="27.22"/><path class="cls-2" d="m101.33,111.34c1.03,3.65,1.32,7.39.86,11.13-.45,3.61-1.58,7.05-3.36,10.24-1.78,3.19-4.12,5.95-6.95,8.23-2.93,2.35-6.27,4.07-9.92,5.11h0c-3.65,1.03-7.39,1.32-11.13.86-3.61-.45-7.05-1.58-10.24-3.36-3.19-1.78-5.95-4.12-8.23-6.95-2.35-2.93-4.07-6.27-5.11-9.92-1.03-3.65-1.32-7.39-.86-11.13.45-3.61,1.58-7.05,3.36-10.24,1.78-3.19,4.12-5.95,6.95-8.23,2.93-2.35,6.27-4.07,9.92-5.11,3.65-1.03,7.39-1.32,11.13-.86,3.61.45,7.05,1.58,10.24,3.36,3.19,1.78,5.95,4.12,8.23,6.95,1.61,2.01,2.92,4.2,3.92,6.56.46,1.09.86,2.21,1.18,3.37Zm-39.88,30.66c6.14,3.43,13.26,4.26,20.03,2.35,6.77-1.92,12.39-6.36,15.82-12.5,3.43-6.14,4.26-13.26,2.35-20.03-.31-1.09-.68-2.14-1.11-3.16-2.27-5.35-6.23-9.77-11.39-12.66-6.14-3.43-13.26-4.26-20.03-2.35-13.98,3.96-22.13,18.55-18.17,32.53.31,1.09.68,2.14,1.11,3.16,2.27,5.35,6.23,9.77,11.39,12.66Z"/></g><g><circle class="cls-6" cx="74.29" cy="119" r="23.23"/><path class="cls-5" d="m97.49,112.43c.89,3.13,1.13,6.34.74,9.55-.39,3.09-1.36,6.05-2.88,8.78-1.53,2.73-3.53,5.11-5.97,7.06-2.52,2.02-5.38,3.49-8.51,4.38h0c-3.13.89-6.34,1.13-9.55.74-3.09-.39-6.05-1.36-8.78-2.88-2.73-1.53-5.11-3.53-7.06-5.97-2.02-2.52-3.49-5.38-4.38-8.51-.89-3.13-1.13-6.34-.74-9.55.39-3.09,1.36-6.05,2.88-8.78,1.53-2.73,3.53-5.11,5.97-7.06,2.52-2.02,5.38-3.49,8.51-4.38,3.13-.89,6.34-1.13,9.55-.74,3.09.39,6.05,1.36,8.78,2.88,2.73,1.53,5.11,3.53,7.06,5.97,1.38,1.72,2.51,3.61,3.37,5.63.4.93.74,1.9,1.02,2.89Zm-34.1,26.09c5.21,2.91,11.25,3.62,16.99,1.99,5.75-1.63,10.51-5.4,13.42-10.61,2.91-5.21,3.62-11.25,1.99-16.99-1.63-5.75-5.4-10.51-10.61-13.42-5.21-2.91-11.25-3.62-16.99-1.99-11.86,3.36-18.78,15.74-15.41,27.6.26.92.58,1.82.95,2.69,1.93,4.54,5.29,8.29,9.66,10.74Z"/></g><g><circle class="cls-6" cx="74.29" cy="119" r="19.24"/><path class="cls-3" d="m93.65,113.52c.74,2.61.95,5.29.61,7.97-.32,2.58-1.13,5.05-2.41,7.33-1.27,2.28-2.95,4.26-4.98,5.89-2.1,1.69-4.49,2.92-7.11,3.66-2.61.74-5.29.95-7.97.61-2.58-.32-5.05-1.13-7.33-2.41-2.28-1.27-4.26-2.95-5.89-4.98-1.69-2.1-2.92-4.49-3.66-7.11-.74-2.61-.95-5.29-.61-7.97.32-2.58,1.13-5.05,2.41-7.33,1.27-2.28,2.95-4.26,4.98-5.89,2.1-1.69,4.49-2.92,7.11-3.66,2.61-.74,5.29-.95,7.97-.61,2.58.32,5.05,1.13,7.33,2.41,2.28,1.27,4.26,2.95,5.89,4.98,1.15,1.44,2.09,3.01,2.81,4.7.33.78.61,1.58.85,2.41Zm-28.32,21.52c4.28,2.39,9.24,2.97,13.96,1.64,9.74-2.76,15.43-12.93,12.66-22.68-2.76-9.74-12.93-15.43-22.68-12.66-4.72,1.34-8.64,4.43-11.03,8.72-2.39,4.28-2.97,9.24-1.64,13.96.21.76.47,1.49.78,2.21,1.58,3.73,4.34,6.81,7.94,8.82Z"/></g><g><circle class="cls-6" cx="74.29" cy="119" r="15.26"/><path class="cls-4" d="m89.81,114.61c1.17,4.15.66,8.5-1.44,12.26-2.1,3.76-5.54,6.48-9.69,7.66-4.15,1.17-8.5.66-12.26-1.44-3.76-2.1-6.48-5.54-7.66-9.69-1.17-4.15-.66-8.5,1.44-12.26,2.1-3.76,5.54-6.48,9.69-7.66,4.15-1.17,8.5-.66,12.26,1.44,3.16,1.76,5.58,4.47,6.97,7.75.27.63.49,1.27.68,1.94Zm-22.53,16.95c3.35,1.87,7.23,2.33,10.93,1.28,7.63-2.16,12.07-10.12,9.91-17.75-.17-.59-.37-1.16-.6-1.71-2.79-6.57-10.11-10.2-17.15-8.2-7.63,2.16-12.07,10.12-9.91,17.75.17.59.37,1.17.61,1.73,1.24,2.92,3.4,5.33,6.22,6.91Z"/></g><g><circle class="cls-6" cx="74.29" cy="119" r="11.27"/><path class="cls-7" d="m85.97,115.69c.88,3.12.5,6.4-1.08,9.23-1.58,2.83-4.17,4.88-7.29,5.76-3.12.88-6.4.5-9.23-1.08-2.83-1.58-4.88-4.17-5.76-7.29-.88-3.12-.5-6.4,1.08-9.23,1.58-2.83,4.17-4.88,7.29-5.76,3.12-.88,6.4-.5,9.23,1.08,2.38,1.33,4.2,3.37,5.25,5.83.2.47.37.96.51,1.46Zm-16.75,12.38c2.42,1.35,5.23,1.68,7.9.92,2.67-.76,4.88-2.51,6.24-4.93,1.35-2.42,1.68-5.23.92-7.9-.76-2.67-2.51-4.88-4.93-6.24-2.42-1.35-5.23-1.68-7.9-.92-2.67.76-4.89,2.51-6.24,4.93-1.35,2.42-1.68,5.23-.92,7.9.12.43.27.84.44,1.25.9,2.11,2.46,3.85,4.49,4.99Z"/></g><g><circle class="cls-6" cx="74.29" cy="119" r="7.28"/><path class="cls-7" d="m82.13,116.78c.59,2.1.34,4.3-.73,6.2-1.06,1.9-2.8,3.28-4.9,3.87-4.33,1.23-8.84-1.3-10.07-5.62-1.23-4.33,1.3-8.84,5.62-10.07,2.1-.59,4.3-.34,6.2.73,1.6.89,2.82,2.26,3.52,3.92.13.32.25.64.34.98Zm-6.1,8.38c1.64-.47,3.01-1.54,3.84-3.04.83-1.49,1.04-3.22.57-4.86-.47-1.64-1.54-3.01-3.04-3.84-1.49-.83-3.22-1.04-4.86-.57-3.39.96-5.37,4.51-4.41,7.9.07.26.16.52.27.76,1.24,2.92,4.5,4.54,7.63,3.65Z"/></g><g><circle class="cls-6" cx="62.48" cy="84.49" r="27.22"/><path class="cls-2" d="m89.52,76.83c1.03,3.65,1.32,7.39.86,11.13-.45,3.61-1.58,7.05-3.36,10.24-1.78,3.19-4.12,5.95-6.95,8.23-2.93,2.35-6.27,4.07-9.92,5.11h0c-3.65,1.03-7.39,1.32-11.13.86-3.61-.45-7.05-1.58-10.24-3.36-3.19-1.78-5.95-4.12-8.23-6.95-2.35-2.93-4.07-6.27-5.11-9.92-1.03-3.65-1.32-7.39-.86-11.13.45-3.61,1.58-7.05,3.36-10.24,1.78-3.19,4.12-5.95,6.95-8.23,2.93-2.35,6.27-4.07,9.92-5.11,3.65-1.03,7.39-1.32,11.13-.86,3.61.45,7.05,1.58,10.24,3.36,3.19,1.78,5.95,4.12,8.23,6.95,1.61,2.01,2.92,4.2,3.92,6.56.46,1.09.86,2.21,1.18,3.37Zm-39.88,30.66c6.14,3.43,13.26,4.26,20.03,2.35,6.77-1.92,12.39-6.36,15.82-12.5,3.43-6.14,4.26-13.26,2.35-20.03-.31-1.09-.68-2.14-1.11-3.16-2.27-5.35-6.23-9.77-11.39-12.66-6.14-3.43-13.26-4.26-20.03-2.35-13.98,3.96-22.13,18.55-18.17,32.53.31,1.09.68,2.14,1.11,3.16,2.27,5.35,6.23,9.77,11.39,12.66Z"/></g><g><circle class="cls-6" cx="62.48" cy="84.49" r="23.23"/><path class="cls-5" d="m85.68,77.92c.89,3.13,1.13,6.34.74,9.55-.39,3.09-1.36,6.05-2.88,8.78-1.53,2.73-3.53,5.11-5.97,7.06-2.52,2.02-5.38,3.49-8.51,4.38h0c-3.13.89-6.34,1.13-9.55.74-3.09-.39-6.05-1.36-8.78-2.88-2.73-1.53-5.11-3.53-7.06-5.97-2.02-2.52-3.49-5.38-4.38-8.51-.89-3.13-1.13-6.34-.74-9.55.39-3.09,1.36-6.05,2.88-8.78,1.53-2.73,3.53-5.11,5.97-7.06,2.52-2.02,5.38-3.49,8.51-4.38,3.13-.89,6.34-1.13,9.55-.74,3.09.39,6.05,1.36,8.78,2.88,2.73,1.53,5.11,3.53,7.06,5.97,1.38,1.72,2.51,3.61,3.37,5.63.4.93.74,1.9,1.02,2.89Zm-34.1,26.09c5.21,2.91,11.25,3.62,16.99,1.99,5.75-1.63,10.51-5.4,13.42-10.61,2.91-5.21,3.62-11.25,1.99-16.99-1.63-5.75-5.4-10.51-10.61-13.42-5.21-2.91-11.25-3.62-16.99-1.99-11.86,3.36-18.78,15.74-15.41,27.6.26.92.58,1.82.95,2.69,1.93,4.54,5.29,8.29,9.66,10.74Z"/></g><g><circle class="cls-6" cx="62.48" cy="84.49" r="19.24"/><path class="cls-3" d="m81.84,79c.74,2.61.95,5.29.61,7.97-.32,2.58-1.13,5.05-2.41,7.33-1.27,2.28-2.95,4.26-4.98,5.89-2.1,1.69-4.49,2.92-7.11,3.66-2.61.74-5.29.95-7.97.61-2.58-.32-5.05-1.13-7.33-2.41-2.28-1.27-4.26-2.95-5.89-4.98-1.69-2.1-2.92-4.49-3.66-7.11-.74-2.61-.95-5.29-.61-7.97.32-2.58,1.13-5.05,2.41-7.33,1.27-2.28,2.95-4.26,4.98-5.89,2.1-1.69,4.49-2.92,7.11-3.66,2.61-.74,5.29-.95,7.97-.61,2.58.32,5.05,1.13,7.33,2.41,2.28,1.27,4.26,2.95,5.89,4.98,1.15,1.44,2.09,3.01,2.81,4.7.33.78.61,1.58.85,2.41Zm-28.32,21.52c4.28,2.39,9.24,2.97,13.96,1.64,9.74-2.76,15.43-12.93,12.66-22.68-2.76-9.74-12.93-15.43-22.68-12.66-4.72,1.34-8.64,4.43-11.03,8.72-2.39,4.28-2.97,9.24-1.64,13.96.21.76.47,1.49.78,2.21,1.58,3.73,4.34,6.81,7.94,8.82Z"/></g><g><circle class="cls-6" cx="62.48" cy="84.49" r="15.26"/><path class="cls-4" d="m78,80.09c1.17,4.15.66,8.5-1.44,12.26-2.1,3.76-5.54,6.48-9.69,7.66-4.15,1.17-8.5.66-12.26-1.44-3.76-2.1-6.48-5.54-7.66-9.69-1.17-4.15-.66-8.5,1.44-12.26,2.1-3.76,5.54-6.48,9.69-7.66,4.15-1.17,8.5-.66,12.26,1.44,3.16,1.76,5.58,4.47,6.97,7.75.27.63.49,1.27.68,1.94Zm-22.53,16.95c3.35,1.87,7.23,2.33,10.93,1.28,7.63-2.16,12.07-10.12,9.91-17.75-.17-.59-.37-1.16-.6-1.71-2.79-6.57-10.11-10.2-17.15-8.2-7.63,2.16-12.07,10.12-9.91,17.75.17.59.37,1.17.61,1.73,1.24,2.92,3.4,5.33,6.22,6.91Z"/></g><g><circle class="cls-6" cx="62.48" cy="84.49" r="11.27"/><path class="cls-7" d="m74.17,81.18c.88,3.12.5,6.4-1.08,9.23-1.58,2.83-4.17,4.88-7.29,5.76-3.12.88-6.4.5-9.23-1.08-2.83-1.58-4.88-4.17-5.76-7.29-.88-3.12-.5-6.4,1.08-9.23,1.58-2.83,4.17-4.88,7.29-5.76,3.12-.88,6.4-.5,9.23,1.08,2.38,1.33,4.2,3.37,5.25,5.83.2.47.37.96.51,1.46Zm-16.75,12.38c2.42,1.35,5.23,1.68,7.9.92,2.67-.76,4.88-2.51,6.24-4.93,1.35-2.42,1.68-5.23.92-7.9-.76-2.67-2.51-4.88-4.93-6.24-2.42-1.35-5.23-1.68-7.9-.92-2.67.76-4.89,2.51-6.24,4.93-1.35,2.42-1.68,5.23-.92,7.9.12.43.27.84.44,1.25.9,2.11,2.46,3.85,4.49,4.99Z"/></g><g><circle class="cls-6" cx="62.48" cy="84.49" r="7.28"/><path class="cls-7" d="m70.33,82.27c.59,2.1.34,4.3-.73,6.2-1.06,1.9-2.8,3.28-4.9,3.87-4.33,1.23-8.84-1.3-10.07-5.62-1.23-4.33,1.3-8.84,5.62-10.07,2.1-.59,4.3-.34,6.2.73,1.6.89,2.82,2.26,3.52,3.92.13.32.25.64.34.98Zm-6.1,8.38c1.64-.47,3.01-1.54,3.84-3.04.83-1.49,1.04-3.22.57-4.86-.47-1.64-1.54-3.01-3.04-3.84-1.49-.83-3.22-1.04-4.86-.57-3.39.96-5.37,4.51-4.41,7.9.07.26.16.52.27.76,1.24,2.92,4.5,4.54,7.63,3.65Z"/></g><g><circle class="cls-6" cx="90.71" cy="65.86" r="17.9"/><path class="cls-2" d="m108.49,60.82c.68,2.4.87,4.86.56,7.32-.3,2.37-1.04,4.64-2.21,6.73-1.17,2.1-2.71,3.92-4.57,5.41-1.93,1.55-4.13,2.68-6.53,3.36h0c-2.4.68-4.86.87-7.32.56-2.37-.3-4.64-1.04-6.73-2.21-2.1-1.17-3.92-2.71-5.41-4.57-1.55-1.93-2.68-4.13-3.36-6.53-.68-2.4-.87-4.86-.56-7.32.3-2.37,1.04-4.64,2.21-6.73,1.17-2.1,2.71-3.92,4.57-5.41,1.93-1.55,4.13-2.68,6.53-3.36,2.4-.68,4.86-.87,7.32-.56,2.37.3,4.64,1.04,6.73,2.21,2.1,1.17,3.92,2.71,5.41,4.57,1.06,1.32,1.92,2.76,2.58,4.31.3.72.56,1.45.78,2.21Zm-26.23,20.17c4.04,2.26,8.72,2.8,13.17,1.54,4.45-1.26,8.15-4.18,10.4-8.22,2.26-4.04,2.8-8.72,1.54-13.17-.2-.71-.45-1.41-.73-2.08-1.49-3.52-4.1-6.43-7.49-8.32-4.04-2.26-8.72-2.8-13.17-1.54-9.19,2.6-14.55,12.2-11.95,21.39.2.71.45,1.41.73,2.08,1.49,3.52,4.1,6.43,7.49,8.32Z"/></g><g><circle class="cls-6" cx="90.71" cy="65.86" r="15.28"/><path class="cls-5" d="m105.96,61.54c.58,2.06.75,4.17.48,6.28-.25,2.03-.89,3.98-1.9,5.78-1,1.8-2.32,3.36-3.92,4.64-1.66,1.33-3.54,2.3-5.6,2.88h0c-2.06.58-4.17.75-6.28.48-2.03-.25-3.98-.89-5.78-1.9-1.8-1-3.36-2.32-4.64-3.92-1.33-1.66-2.3-3.54-2.88-5.6-.58-2.06-.75-4.17-.48-6.28.25-2.03.89-3.98,1.9-5.78,1-1.8,2.32-3.36,3.92-4.64,1.66-1.33,3.54-2.3,5.6-2.88,2.06-.58,4.17-.75,6.28-.48,2.03.25,3.98.89,5.78,1.9,1.8,1,3.36,2.32,4.64,3.92.91,1.13,1.65,2.37,2.21,3.7.26.61.48,1.25.67,1.9Zm-22.42,17.16c3.43,1.91,7.4,2.38,11.18,1.31,3.78-1.07,6.91-3.55,8.83-6.98,1.91-3.43,2.38-7.4,1.31-11.18-1.07-3.78-3.55-6.91-6.98-8.83-3.43-1.91-7.4-2.38-11.18-1.31-7.8,2.21-12.35,10.35-10.14,18.15.17.61.38,1.2.62,1.77,1.27,2.99,3.48,5.45,6.36,7.06Z"/></g><g><circle class="cls-6" cx="90.71" cy="65.86" r="12.66"/><path class="cls-3" d="m103.44,62.25c.49,1.72.62,3.48.4,5.24-.21,1.7-.74,3.32-1.58,4.82-.84,1.5-1.94,2.8-3.27,3.88-1.38,1.11-2.95,1.92-4.67,2.41-1.72.49-3.48.62-5.24.4-1.7-.21-3.32-.74-4.82-1.58-1.5-.84-2.8-1.94-3.88-3.27-1.11-1.38-1.92-2.95-2.41-4.67-.49-1.72-.62-3.48-.4-5.24.21-1.7.74-3.32,1.58-4.82.84-1.5,1.94-2.8,3.27-3.88,1.38-1.11,2.95-1.92,4.67-2.41,1.72-.49,3.48-.62,5.24-.4,1.7.21,3.32.74,4.82,1.58,1.5.84,2.8,1.94,3.88,3.27.76.95,1.38,1.98,1.85,3.09.22.51.4,1.04.56,1.58Zm-18.62,14.15c2.82,1.57,6.08,1.95,9.18,1.08,6.41-1.82,10.14-8.51,8.33-14.91-1.82-6.41-8.51-10.14-14.91-8.33-3.1.88-5.68,2.92-7.25,5.73-1.57,2.82-1.95,6.08-1.08,9.18.14.5.31.98.51,1.45,1.04,2.45,2.86,4.48,5.22,5.8Z"/></g><g><circle class="cls-6" cx="90.71" cy="65.86" r="10.03"/><path class="cls-4" d="m100.91,62.97c.77,2.73.44,5.59-.94,8.07-1.38,2.47-3.64,4.26-6.37,5.04-2.73.77-5.59.44-8.07-.94-2.47-1.38-4.26-3.64-5.04-6.37-.77-2.73-.44-5.59.94-8.07,1.38-2.47,3.64-4.26,6.37-5.04,2.73-.77,5.59-.44,8.07.94,2.08,1.16,3.67,2.94,4.59,5.1.17.41.32.84.45,1.27Zm-14.82,11.15c2.21,1.23,4.76,1.53,7.19.84,5.02-1.42,7.94-6.66,6.52-11.67-.11-.39-.24-.76-.4-1.12-1.83-4.32-6.65-6.71-11.28-5.4-5.02,1.42-7.94,6.66-6.52,11.67.11.39.24.77.4,1.14.82,1.92,2.24,3.51,4.09,4.54Z"/></g><g><circle class="cls-6" cx="90.71" cy="65.86" r="7.41"/><path class="cls-7" d="m98.39,63.68c.58,2.05.33,4.21-.71,6.07-1.04,1.86-2.74,3.21-4.8,3.79-2.05.58-4.21.33-6.07-.71-1.86-1.04-3.21-2.74-3.79-4.8-.58-2.05-.33-4.21.71-6.07,1.04-1.86,2.74-3.21,4.8-3.79,2.05-.58,4.21-.33,6.07.71,1.56.87,2.76,2.21,3.45,3.84.13.31.24.63.34.96Zm-11.01,8.14c1.59.89,3.44,1.11,5.19.61,1.76-.5,3.21-1.65,4.1-3.24.89-1.59,1.11-3.44.61-5.19-.5-1.76-1.65-3.21-3.24-4.1-1.59-.89-3.44-1.11-5.19-.61-1.76.5-3.21,1.65-4.1,3.24-.89,1.59-1.11,3.44-.61,5.19.08.28.18.56.29.82.59,1.39,1.62,2.53,2.95,3.28Z"/></g><g><circle class="cls-6" cx="90.71" cy="65.86" r="4.79"/><path class="cls-7" d="m95.87,64.4c.39,1.38.22,2.83-.48,4.08-.7,1.25-1.84,2.15-3.22,2.55-2.85.81-5.82-.85-6.62-3.7-.81-2.85.85-5.82,3.7-6.62,1.38-.39,2.83-.22,4.08.48,1.05.59,1.86,1.49,2.32,2.58.09.21.16.42.23.64Zm-4.01,5.51c1.08-.31,1.98-1.02,2.53-2,.55-.98.68-2.12.37-3.2-.31-1.08-1.02-1.98-2-2.53-.98-.55-2.12-.68-3.2-.37-2.23.63-3.53,2.96-2.9,5.2.05.17.11.34.18.5.82,1.92,2.96,2.99,5.02,2.4Z"/></g><g><circle class="cls-6" cx="32.34" cy="100.7" r="17.9"/><path class="cls-2" d="m50.12,95.66c.68,2.4.87,4.86.56,7.32-.3,2.37-1.04,4.64-2.21,6.73-1.17,2.1-2.71,3.92-4.57,5.41-1.93,1.55-4.13,2.68-6.53,3.36h0c-2.4.68-4.86.87-7.32.56-2.37-.3-4.64-1.04-6.73-2.21-2.1-1.17-3.92-2.71-5.41-4.57-1.55-1.93-2.68-4.13-3.36-6.53-.68-2.4-.87-4.86-.56-7.32.3-2.37,1.04-4.64,2.21-6.73,1.17-2.1,2.71-3.92,4.57-5.41,1.93-1.55,4.13-2.68,6.53-3.36,2.4-.68,4.86-.87,7.32-.56,2.37.3,4.64,1.04,6.73,2.21,2.1,1.17,3.92,2.71,5.41,4.57,1.06,1.32,1.92,2.76,2.58,4.31.3.72.56,1.45.78,2.21Zm-26.23,20.17c4.04,2.26,8.72,2.8,13.17,1.54,4.45-1.26,8.15-4.18,10.4-8.22,2.26-4.04,2.8-8.72,1.54-13.17-.2-.71-.45-1.41-.73-2.08-1.49-3.52-4.1-6.43-7.49-8.32-4.04-2.26-8.72-2.8-13.17-1.54-9.19,2.6-14.55,12.2-11.95,21.39.2.71.45,1.41.73,2.08,1.49,3.52,4.1,6.43,7.49,8.32Z"/></g><g><circle class="cls-6" cx="32.34" cy="100.7" r="15.28"/><path class="cls-5" d="m47.6,96.37c.58,2.06.75,4.17.48,6.28-.25,2.03-.89,3.98-1.9,5.78-1,1.8-2.32,3.36-3.92,4.64-1.66,1.33-3.54,2.3-5.6,2.88h0c-2.06.58-4.17.75-6.28.48-2.03-.25-3.98-.89-5.78-1.9-1.8-1-3.36-2.32-4.64-3.92-1.33-1.66-2.3-3.54-2.88-5.6-.58-2.06-.75-4.17-.48-6.28.25-2.03.89-3.98,1.9-5.78,1-1.8,2.32-3.36,3.92-4.64,1.66-1.33,3.54-2.3,5.6-2.88,2.06-.58,4.17-.75,6.28-.48,2.03.25,3.98.89,5.78,1.9,1.8,1,3.36,2.32,4.64,3.92.91,1.13,1.65,2.37,2.21,3.7.26.61.48,1.25.67,1.9Zm-22.42,17.16c3.43,1.91,7.4,2.38,11.18,1.31,3.78-1.07,6.91-3.55,8.83-6.98,1.91-3.43,2.38-7.4,1.31-11.18-1.07-3.78-3.55-6.91-6.98-8.83-3.43-1.91-7.4-2.38-11.18-1.31-7.8,2.21-12.35,10.35-10.14,18.15.17.61.38,1.2.62,1.77,1.27,2.99,3.48,5.45,6.36,7.06Z"/></g><g><circle class="cls-6" cx="32.34" cy="100.7" r="12.66"/><path class="cls-3" d="m45.07,97.09c.49,1.72.62,3.48.4,5.24-.21,1.7-.74,3.32-1.58,4.82-.84,1.5-1.94,2.8-3.27,3.88-1.38,1.11-2.95,1.92-4.67,2.41-1.72.49-3.48.62-5.24.4-1.7-.21-3.32-.74-4.82-1.58-1.5-.84-2.8-1.94-3.88-3.27-1.11-1.38-1.92-2.95-2.41-4.67-.49-1.72-.62-3.48-.4-5.24.21-1.7.74-3.32,1.58-4.82.84-1.5,1.94-2.8,3.27-3.88,1.38-1.11,2.95-1.92,4.67-2.41,1.72-.49,3.48-.62,5.24-.4,1.7.21,3.32.74,4.82,1.58,1.5.84,2.8,1.94,3.88,3.27.76.95,1.38,1.98,1.85,3.09.22.51.4,1.04.56,1.58Zm-18.62,14.15c2.82,1.57,6.08,1.95,9.18,1.08,6.41-1.82,10.14-8.51,8.33-14.91-1.82-6.41-8.51-10.14-14.91-8.33-3.1.88-5.68,2.92-7.25,5.73-1.57,2.82-1.95,6.08-1.08,9.18.14.5.31.98.51,1.45,1.04,2.45,2.86,4.48,5.22,5.8Z"/></g><g><circle class="cls-6" cx="32.34" cy="100.7" r="10.03"/><path class="cls-4" d="m42.55,97.8c.77,2.73.44,5.59-.94,8.07-1.38,2.47-3.64,4.26-6.37,5.04-2.73.77-5.59.44-8.07-.94-2.47-1.38-4.26-3.64-5.04-6.37-.77-2.73-.44-5.59.94-8.07,1.38-2.47,3.64-4.26,6.37-5.04,2.73-.77,5.59-.44,8.07.94,2.08,1.16,3.67,2.94,4.59,5.1.17.41.32.84.45,1.27Zm-14.82,11.15c2.21,1.23,4.76,1.53,7.19.84,5.02-1.42,7.94-6.66,6.52-11.67-.11-.39-.24-.76-.4-1.12-1.83-4.32-6.65-6.71-11.28-5.4-5.02,1.42-7.94,6.66-6.52,11.67.11.39.24.77.4,1.14.82,1.92,2.24,3.51,4.09,4.54Z"/></g><g><circle class="cls-6" cx="32.34" cy="100.7" r="7.41"/><path class="cls-7" d="m40.02,98.52c.58,2.05.33,4.21-.71,6.07-1.04,1.86-2.74,3.21-4.8,3.79-2.05.58-4.21.33-6.07-.71-1.86-1.04-3.21-2.74-3.79-4.8-.58-2.05-.33-4.21.71-6.07,1.04-1.86,2.74-3.21,4.8-3.79,2.05-.58,4.21-.33,6.07.71,1.56.87,2.76,2.21,3.45,3.84.13.31.24.63.34.96Zm-11.01,8.14c1.59.89,3.44,1.11,5.19.61,1.76-.5,3.21-1.65,4.1-3.24.89-1.59,1.11-3.44.61-5.19-.5-1.76-1.65-3.21-3.24-4.1-1.59-.89-3.44-1.11-5.19-.61-1.76.5-3.21,1.65-4.1,3.24-.89,1.59-1.11,3.44-.61,5.19.08.28.18.56.29.82.59,1.39,1.62,2.53,2.95,3.28Z"/></g><g><circle class="cls-6" cx="32.34" cy="100.7" r="4.79"/><path class="cls-7" d="m37.5,99.24c.39,1.38.22,2.83-.48,4.08-.7,1.25-1.84,2.15-3.22,2.55-2.85.81-5.82-.85-6.62-3.7-.81-2.85.85-5.82,3.7-6.62,1.38-.39,2.83-.22,4.08.48,1.05.59,1.86,1.49,2.32,2.58.09.21.16.42.23.64Zm-4.01,5.51c1.08-.31,1.98-1.02,2.53-2,.55-.98.68-2.12.37-3.2-.31-1.08-1.02-1.98-2-2.53-.98-.55-2.12-.68-3.2-.37-2.23.63-3.53,2.96-2.9,5.2.05.17.11.34.18.5.82,1.92,2.96,2.99,5.02,2.4Z"/></g><g><circle class="cls-6" cx="67.21" cy="41.36" r="21.5"/><path class="cls-7" d="m83.29,26.06c1.4,1.46,2.58,3.1,3.53,4.89,1.34,2.54,2.18,5.27,2.47,8.14.29,2.87.04,5.72-.76,8.47-.83,2.85-2.21,5.48-4.1,7.8-1.89,2.32-4.18,4.21-6.81,5.6-2.54,1.34-5.27,2.18-8.14,2.47-2.87.29-5.72.04-8.47-.76-2.85-.83-5.48-2.21-7.8-4.1-2.32-1.89-4.21-4.18-5.6-6.81-1.34-2.54-2.18-5.27-2.47-8.14-.29-2.87-.04-5.72.76-8.47.83-2.85,2.21-5.48,4.1-7.8h0c1.89-2.32,4.18-4.21,6.81-5.6,2.54-1.34,5.27-2.18,8.14-2.47,2.87-.29,5.72-.04,8.47.76,2.85.83,5.48,2.21,7.8,4.1.73.6,1.43,1.24,2.07,1.91Zm-31.16,29.65c.61.63,1.26,1.23,1.95,1.8,8.9,7.24,22.03,5.89,29.27-3.01,3.51-4.31,5.13-9.73,4.56-15.26-.48-4.64-2.45-8.9-5.62-12.22-.61-.63-1.26-1.23-1.95-1.8-4.31-3.51-9.73-5.13-15.26-4.56-5.53.57-10.51,3.25-14.01,7.57-3.51,4.31-5.13,9.73-4.56,15.26.48,4.64,2.45,8.9,5.62,12.22Z"/></g><g><circle class="cls-6" cx="67.21" cy="41.36" r="18.35"/><path class="cls-7" d="m81.01,28.23c1.2,1.25,2.21,2.66,3.03,4.2,1.15,2.18,1.87,4.53,2.12,6.99.25,2.46.03,4.91-.66,7.27-.71,2.45-1.9,4.7-3.52,6.69-1.62,1.99-3.59,3.61-5.84,4.8-2.18,1.15-4.53,1.87-6.99,2.12-2.46.25-4.91.03-7.27-.66-2.45-.71-4.7-1.9-6.69-3.52-1.99-1.62-3.61-3.59-4.8-5.84-1.15-2.18-1.87-4.53-2.12-6.99-.25-2.46-.03-4.91.66-7.27.71-2.45,1.9-4.7,3.52-6.69h0c1.62-1.99,3.59-3.61,5.84-4.8,2.18-1.15,4.53-1.87,6.99-2.12,2.46-.25,4.91-.03,7.27.66,2.45.71,4.7,1.9,6.69,3.52.63.51,1.22,1.06,1.78,1.64Zm-26.59,25.3c.51.54,1.07,1.05,1.65,1.53,7.55,6.15,18.7,5,24.84-2.55,2.98-3.66,4.35-8.26,3.87-12.95-.48-4.69-2.76-8.92-6.42-11.89-3.66-2.98-8.26-4.35-12.95-3.87-4.69.48-8.92,2.76-11.89,6.42s-4.35,8.26-3.87,12.95c.4,3.94,2.08,7.55,4.77,10.37Z"/></g><g><circle class="cls-6" cx="67.21" cy="41.36" r="15.2"/><path class="cls-7" d="m78.73,30.41c1,1.05,1.85,2.22,2.53,3.51.96,1.82,1.56,3.78,1.77,5.83.21,2.05.03,4.09-.55,6.07-.59,2.04-1.58,3.92-2.94,5.59-1.35,1.66-2.99,3.01-4.87,4.01-1.82.96-3.78,1.56-5.83,1.77-2.05.21-4.09.03-6.07-.55-2.04-.59-3.92-1.58-5.59-2.94-1.66-1.35-3.01-2.99-4.01-4.87-.96-1.82-1.56-3.78-1.77-5.83-.21-2.05-.03-4.09.55-6.07.59-2.04,1.58-3.92,2.94-5.59,1.35-1.66,2.99-3.01,4.87-4.01,1.82-.96,3.78-1.56,5.83-1.77,2.05-.21,4.09-.03,6.07.55,2.04.59,3.92,1.58,5.59,2.94.53.43,1.02.88,1.48,1.37Zm-22.03,20.96c.42.44.88.86,1.36,1.25,3.01,2.45,6.78,3.57,10.64,3.18,3.85-.4,7.32-2.27,9.77-5.27,5.05-6.2,4.11-15.36-2.1-20.41-6.2-5.05-15.36-4.11-20.41,2.1-2.45,3.01-3.57,6.78-3.18,10.64.33,3.24,1.71,6.2,3.92,8.52Z"/></g><g><circle class="cls-6" cx="67.21" cy="41.36" r="12.05"/><path class="cls-7" d="m76.45,32.58c1.94,2.03,3.15,4.64,3.44,7.48.35,3.39-.64,6.7-2.79,9.34-2.15,2.64-5.2,4.29-8.58,4.63-3.39.35-6.7-.64-9.34-2.79-2.64-2.15-4.29-5.2-4.63-8.58-.35-3.39.64-6.7,2.79-9.34,2.15-2.64,5.2-4.29,8.58-4.63,3.39-.35,6.7.64,9.34,2.79.42.34.82.71,1.19,1.1Zm-17.47,16.61c.33.35.69.67,1.06.98,4.86,3.95,12.02,3.22,15.98-1.64,3.65-4.48,3.3-10.93-.59-15-.33-.34-.68-.67-1.05-.97-4.86-3.95-12.02-3.22-15.98,1.64-1.91,2.35-2.8,5.31-2.49,8.33.26,2.53,1.34,4.85,3.07,6.67Z"/></g><g><circle class="cls-6" cx="67.21" cy="41.36" r="8.9"/><path class="cls-7" d="m74.16,34.75c1.46,1.53,2.37,3.49,2.59,5.63.26,2.55-.48,5.05-2.1,7.03-1.62,1.99-3.91,3.23-6.46,3.49-2.55.26-5.05-.48-7.03-2.1-1.99-1.62-3.23-3.91-3.49-6.46-.26-2.55.48-5.05,2.1-7.03,1.62-1.99,3.91-3.23,6.46-3.49,2.55-.26,5.05.48,7.03,2.1.32.26.62.54.9.83Zm-12.9,12.27c.24.25.49.49.77.71,1.7,1.38,3.84,2.02,6.02,1.8,2.18-.22,4.14-1.28,5.53-2.98,1.38-1.7,2.02-3.84,1.8-6.02-.22-2.18-1.28-4.14-2.98-5.53-1.7-1.38-3.84-2.02-6.02-1.8-2.18.22-4.14,1.28-5.53,2.98-1.38,1.7-2.02,3.84-1.8,6.02.19,1.83.96,3.51,2.22,4.82Z"/></g><g><circle class="cls-6" cx="67.21" cy="41.36" r="5.75"/><path class="cls-7" d="m71.88,36.93c.98,1.03,1.59,2.34,1.74,3.78.18,1.71-.33,3.39-1.41,4.72-2.24,2.75-6.31,3.17-9.06.93-2.75-2.24-3.17-6.31-.93-9.06,1.09-1.33,2.63-2.17,4.34-2.34,1.71-.18,3.39.33,4.72,1.41.21.17.42.36.6.56Zm-8.33,7.93c.15.15.3.3.47.43,2.16,1.76,5.35,1.43,7.11-.73.85-1.05,1.25-2.36,1.11-3.71-.14-1.34-.79-2.55-1.84-3.4-1.05-.85-2.36-1.25-3.71-1.11-1.34.14-2.55.79-3.4,1.84-1.62,1.99-1.47,4.86.26,6.68Z"/></g><g><circle class="cls-6" cx="44.91" cy="141.63" r="21.5"/><path class="cls-7" d="m60.99,126.32c1.4,1.46,2.58,3.1,3.53,4.89,1.34,2.54,2.18,5.27,2.47,8.14.29,2.87.04,5.72-.76,8.47-.83,2.85-2.21,5.48-4.1,7.8-1.89,2.32-4.18,4.21-6.81,5.6-2.54,1.34-5.27,2.18-8.14,2.47-2.87.29-5.72.04-8.47-.76-2.85-.83-5.48-2.21-7.8-4.1-2.32-1.89-4.21-4.18-5.6-6.81-1.34-2.54-2.18-5.27-2.47-8.14-.29-2.87-.04-5.72.76-8.47.83-2.85,2.21-5.48,4.1-7.8h0c1.89-2.32,4.18-4.21,6.81-5.6,2.54-1.34,5.27-2.18,8.14-2.47,2.87-.29,5.72-.04,8.47.76,2.85.83,5.48,2.21,7.8,4.1.73.6,1.43,1.24,2.07,1.91Zm-31.16,29.65c.61.63,1.26,1.23,1.95,1.8,8.9,7.24,22.03,5.89,29.27-3.01,3.51-4.31,5.13-9.73,4.56-15.26-.48-4.64-2.45-8.9-5.62-12.22-.61-.63-1.26-1.23-1.95-1.8-4.31-3.51-9.73-5.13-15.26-4.56-5.53.57-10.51,3.25-14.01,7.57-3.51,4.31-5.13,9.73-4.56,15.26.48,4.64,2.45,8.9,5.62,12.22Z"/></g><g><circle class="cls-6" cx="44.91" cy="141.63" r="18.35"/><path class="cls-7" d="m58.71,128.5c1.2,1.25,2.21,2.66,3.03,4.2,1.15,2.18,1.87,4.53,2.12,6.99.25,2.46.03,4.91-.66,7.27-.71,2.45-1.9,4.7-3.52,6.69-1.62,1.99-3.59,3.61-5.84,4.8-2.18,1.15-4.53,1.87-6.99,2.12-2.46.25-4.91.03-7.27-.66-2.45-.71-4.7-1.9-6.69-3.52-1.99-1.62-3.61-3.59-4.8-5.84-1.15-2.18-1.87-4.53-2.12-6.99-.25-2.46-.03-4.91.66-7.27.71-2.45,1.9-4.7,3.52-6.69h0c1.62-1.99,3.59-3.61,5.84-4.8,2.18-1.15,4.53-1.87,6.99-2.12,2.46-.25,4.91-.03,7.27.66,2.45.71,4.7,1.9,6.69,3.52.63.51,1.22,1.06,1.78,1.64Zm-26.59,25.3c.51.54,1.07,1.05,1.65,1.53,7.55,6.15,18.7,5,24.84-2.55,2.98-3.66,4.35-8.26,3.87-12.95-.48-4.69-2.76-8.92-6.42-11.89-3.66-2.98-8.26-4.35-12.95-3.87-4.69.48-8.92,2.76-11.89,6.42-2.98,3.66-4.35,8.26-3.87,12.95.4,3.94,2.08,7.55,4.77,10.37Z"/></g><g><circle class="cls-6" cx="44.91" cy="141.63" r="15.2"/><path class="cls-7" d="m56.42,130.67c1,1.05,1.85,2.22,2.53,3.51.96,1.82,1.56,3.78,1.77,5.83.21,2.05.03,4.09-.55,6.07-.59,2.04-1.58,3.92-2.94,5.59-1.35,1.66-2.99,3.01-4.87,4.01-1.82.96-3.78,1.56-5.83,1.77-2.05.21-4.09.03-6.07-.55-2.04-.59-3.92-1.58-5.59-2.94-1.66-1.35-3.01-2.99-4.01-4.87-.96-1.82-1.56-3.78-1.77-5.83-.21-2.05-.03-4.09.55-6.07.59-2.04,1.58-3.92,2.94-5.59,1.35-1.66,2.99-3.01,4.87-4.01,1.82-.96,3.78-1.56,5.83-1.77,2.05-.21,4.09-.03,6.07.55,2.04.59,3.92,1.58,5.59,2.94.53.43,1.02.88,1.48,1.37Zm-22.03,20.96c.42.44.88.86,1.36,1.25,3.01,2.45,6.78,3.57,10.64,3.18,3.85-.4,7.32-2.27,9.77-5.27,5.05-6.2,4.11-15.36-2.1-20.41-6.2-5.05-15.36-4.11-20.41,2.1-2.45,3.01-3.57,6.78-3.18,10.64.33,3.24,1.71,6.2,3.92,8.52Z"/></g><g><circle class="cls-6" cx="44.91" cy="141.63" r="12.05"/><path class="cls-7" d="m54.15,132.84c1.94,2.03,3.15,4.64,3.44,7.48.35,3.39-.64,6.7-2.79,9.34-2.15,2.64-5.2,4.29-8.58,4.63-3.39.35-6.7-.64-9.34-2.79-2.64-2.15-4.29-5.2-4.63-8.58-.35-3.39.64-6.7,2.79-9.34,2.15-2.64,5.2-4.29,8.58-4.63,3.39-.35,6.7.64,9.34,2.79.42.34.82.71,1.19,1.1Zm-17.47,16.61c.33.35.69.67,1.06.98,4.86,3.95,12.02,3.22,15.98-1.64,3.65-4.48,3.3-10.93-.59-15-.33-.34-.68-.67-1.05-.97-4.86-3.95-12.02-3.22-15.98,1.64-1.91,2.35-2.8,5.31-2.49,8.33.26,2.53,1.34,4.85,3.07,6.67Z"/></g><g><circle class="cls-6" cx="44.91" cy="141.63" r="8.9"/><path class="cls-7" d="m51.86,135.02c1.46,1.53,2.37,3.49,2.59,5.63.26,2.55-.48,5.05-2.1,7.03-1.62,1.99-3.91,3.23-6.46,3.49-2.55.26-5.05-.48-7.03-2.1-1.99-1.62-3.23-3.91-3.49-6.46-.26-2.55.48-5.05,2.1-7.03,1.62-1.99,3.91-3.23,6.46-3.49,2.55-.26,5.05.48,7.03,2.1.32.26.62.54.9.83Zm-12.9,12.27c.24.25.49.49.77.71,1.7,1.38,3.84,2.02,6.02,1.8,2.18-.22,4.14-1.28,5.53-2.98,1.38-1.7,2.02-3.84,1.8-6.02-.22-2.18-1.28-4.14-2.98-5.53-1.7-1.38-3.84-2.02-6.02-1.8-2.18.22-4.14,1.28-5.53,2.98-1.38,1.7-2.02,3.84-1.8,6.02.19,1.83.96,3.51,2.22,4.82Z"/></g><g><circle class="cls-6" cx="44.91" cy="141.63" r="5.75"/><path class="cls-7" d="m49.58,137.19c.98,1.03,1.59,2.34,1.74,3.78.18,1.71-.33,3.39-1.41,4.72-2.24,2.75-6.31,3.17-9.06.93-2.75-2.24-3.17-6.31-.93-9.06,1.09-1.33,2.63-2.17,4.34-2.34,1.71-.18,3.39.33,4.72,1.41.21.17.42.36.6.56Zm-8.33,7.93c.15.15.3.3.47.43,2.16,1.76,5.35,1.43,7.11-.73.85-1.05,1.25-2.36,1.11-3.71-.14-1.34-.79-2.55-1.84-3.4-1.05-.85-2.36-1.25-3.71-1.11-1.34.14-2.55.79-3.4,1.84-1.62,1.99-1.47,4.86.26,6.68Z"/></g><g><circle class="cls-6" cx="33.61" cy="99.74" r="32.55"/><path class="cls-7" d="m57.95,76.57c2.11,2.21,3.9,4.69,5.34,7.41,2.04,3.84,3.29,7.99,3.74,12.33.45,4.34.06,8.66-1.16,12.83-1.26,4.32-3.34,8.29-6.21,11.81-2.86,3.52-6.33,6.37-10.3,8.48-3.84,2.04-7.99,3.29-12.33,3.74-4.34.45-8.66.06-12.83-1.16-4.32-1.26-8.29-3.34-11.81-6.21-3.52-2.86-6.37-6.33-8.48-10.3-2.04-3.84-3.29-7.99-3.74-12.33-.45-4.34-.06-8.66,1.16-12.83,1.26-4.32,3.34-8.29,6.21-11.81h0c2.86-3.52,6.33-6.37,10.3-8.48,3.84-2.04,7.99-3.29,12.33-3.74,4.34-.45,8.66-.06,12.83,1.16,4.32,1.26,8.29,3.34,11.81,6.21,1.11.91,2.16,1.87,3.14,2.89ZM10.77,121.45c.92.96,1.9,1.87,2.95,2.72,13.47,10.96,33.36,8.92,44.32-4.55,5.31-6.53,7.76-14.73,6.9-23.1-.72-7.03-3.71-13.47-8.51-18.5-.92-.96-1.9-1.87-2.95-2.72-6.53-5.31-14.73-7.76-23.1-6.9-8.37.86-15.91,4.93-21.22,11.45-5.31,6.53-7.76,14.73-6.9,23.1.72,7.03,3.71,13.47,8.51,18.5Z"/></g><g><circle class="cls-6" cx="33.61" cy="99.74" r="27.78"/><path class="cls-7" d="m54.5,79.86c1.81,1.9,3.35,4.03,4.58,6.36,1.75,3.29,2.83,6.85,3.21,10.58.38,3.72.05,7.43-.99,11.01-1.08,3.71-2.87,7.12-5.33,10.14-2.46,3.02-5.43,5.47-8.84,7.27-3.29,1.75-6.85,2.83-10.58,3.21-3.72.38-7.43.05-11.01-.99-3.71-1.08-7.12-2.87-10.14-5.33-3.02-2.46-5.47-5.43-7.27-8.84-1.75-3.29-2.83-6.85-3.21-10.58-.38-3.72-.05-7.43.99-11.01,1.08-3.71,2.87-7.12,5.33-10.14h0c2.46-3.02,5.43-5.47,8.84-7.27,3.29-1.75,6.85-2.83,10.58-3.21,3.72-.38,7.43-.05,11.01.99,3.71,1.08,7.12,2.87,10.14,5.33.95.78,1.85,1.61,2.69,2.48ZM14.23,118.16c.78.82,1.61,1.59,2.5,2.31,11.43,9.3,28.3,7.57,37.61-3.86,4.51-5.54,6.59-12.5,5.86-19.6-.73-7.1-4.18-13.5-9.72-18-5.54-4.51-12.5-6.59-19.6-5.86-7.1.73-13.5,4.18-18,9.72s-6.59,12.5-5.86,19.6c.61,5.96,3.14,11.43,7.22,15.7Z"/></g><g><circle class="cls-6" cx="33.61" cy="99.74" r="23.01"/><path class="cls-7" d="m51.04,83.15c1.51,1.58,2.79,3.36,3.83,5.31,1.46,2.75,2.36,5.72,2.68,8.83.32,3.11.04,6.2-.83,9.19-.9,3.09-2.4,5.94-4.45,8.46-2.05,2.52-4.53,4.56-7.38,6.07-2.75,1.46-5.72,2.36-8.83,2.68-3.11.32-6.2.04-9.19-.83-3.09-.9-5.94-2.4-8.46-4.45-2.52-2.05-4.56-4.53-6.07-7.38-1.46-2.75-2.36-5.72-2.68-8.83-.32-3.11-.04-6.2.83-9.19.9-3.09,2.4-5.94,4.45-8.46,2.05-2.52,4.53-4.56,7.38-6.07,2.75-1.46,5.72-2.36,8.83-2.68,3.11-.32,6.2-.04,9.19.83,3.09.9,5.94,2.4,8.46,4.45.8.65,1.55,1.34,2.24,2.07Zm-33.35,31.73c.64.67,1.33,1.3,2.05,1.9,4.55,3.7,10.27,5.41,16.11,4.81,5.84-.6,11.09-3.44,14.79-7.99,7.64-9.39,6.22-23.25-3.17-30.9-9.39-7.64-23.25-6.22-30.9,3.17-3.7,4.55-5.41,10.27-4.81,16.11.5,4.9,2.58,9.39,5.93,12.89Z"/></g><g><circle class="cls-6" cx="33.61" cy="99.74" r="18.24"/><path class="cls-7" d="m47.59,86.44c2.94,3.08,4.77,7.02,5.21,11.33.53,5.13-.98,10.15-4.23,14.15-3.25,4-7.87,6.49-12.99,7.01-5.13.53-10.15-.98-14.15-4.23-4-3.25-6.49-7.87-7.01-12.99-.53-5.13.98-10.15,4.23-14.15,3.25-4,7.87-6.49,12.99-7.01,5.13-.53,10.15.98,14.15,4.23.64.52,1.24,1.08,1.8,1.67Zm-26.44,25.15c.5.52,1.04,1.02,1.61,1.49,7.35,5.98,18.2,4.87,24.19-2.48,5.52-6.78,5-16.55-.89-22.72-.49-.52-1.02-1.01-1.59-1.47-7.35-5.98-18.2-4.87-24.19,2.48-2.9,3.56-4.24,8.04-3.77,12.61.39,3.84,2.02,7.35,4.64,10.09Z"/></g><g><circle class="cls-6" cx="33.61" cy="99.74" r="13.47"/><path class="cls-7" d="m44.13,89.73c2.21,2.32,3.59,5.29,3.92,8.53.4,3.86-.73,7.64-3.18,10.65-2.45,3.01-5.92,4.88-9.78,5.28-3.86.4-7.64-.73-10.65-3.18-3.01-2.45-4.88-5.92-5.28-9.78-.4-3.86.73-7.64,3.18-10.65,2.45-3.01,5.92-4.88,9.78-5.28,3.86-.4,7.64.73,10.65,3.18.48.39.94.81,1.36,1.25Zm-19.53,18.57c.36.38.75.74,1.16,1.07,2.57,2.09,5.81,3.06,9.11,2.72,3.3-.34,6.27-1.94,8.37-4.52,2.09-2.57,3.06-5.81,2.72-9.11-.34-3.3-1.94-6.27-4.52-8.37-2.57-2.09-5.81-3.06-9.11-2.72-3.3.34-6.27,1.94-8.37,4.52-2.09,2.57-3.06,5.81-2.72,9.11.28,2.77,1.46,5.31,3.35,7.29Z"/></g><g><circle class="cls-6" cx="33.61" cy="99.74" r="8.7"/><path class="cls-7" d="m40.67,93.02c1.49,1.56,2.41,3.55,2.63,5.73.27,2.59-.49,5.13-2.14,7.15-3.39,4.17-9.55,4.8-13.72,1.41-4.17-3.39-4.8-9.55-1.41-13.72,1.64-2.02,3.98-3.28,6.57-3.55,2.59-.27,5.13.49,7.15,2.14.32.26.63.55.91.84Zm-12.61,12c.22.23.46.45.71.65,3.27,2.66,8.1,2.17,10.76-1.11,1.29-1.59,1.89-3.58,1.68-5.61-.21-2.03-1.2-3.86-2.78-5.15-1.59-1.29-3.58-1.89-5.61-1.68-2.03.21-3.86,1.2-5.15,2.78-2.46,3.02-2.23,7.36.4,10.11Z"/></g><g><circle class="cls-6" cx="93.8" cy="92.14" r="21.5"/><path class="cls-7" d="m109.88,76.83c1.4,1.46,2.58,3.1,3.53,4.89,1.34,2.54,2.18,5.27,2.47,8.14.29,2.87.04,5.72-.76,8.47-.83,2.85-2.21,5.48-4.1,7.8-1.89,2.32-4.18,4.21-6.81,5.6-2.54,1.34-5.27,2.18-8.14,2.47-2.87.29-5.72.04-8.47-.76-2.85-.83-5.48-2.21-7.8-4.1-2.32-1.89-4.21-4.18-5.6-6.81-1.34-2.54-2.18-5.27-2.47-8.14-.29-2.87-.04-5.72.76-8.47.83-2.85,2.21-5.48,4.1-7.8h0c1.89-2.32,4.18-4.21,6.81-5.6,2.54-1.34,5.27-2.18,8.14-2.47,2.87-.29,5.72-.04,8.47.76,2.85.83,5.48,2.21,7.8,4.1.73.6,1.43,1.24,2.07,1.91Zm-31.16,29.65c.61.63,1.26,1.23,1.95,1.8,8.9,7.24,22.03,5.89,29.27-3.01,3.51-4.31,5.13-9.73,4.56-15.26-.48-4.64-2.45-8.9-5.62-12.22-.61-.63-1.26-1.23-1.95-1.8-4.31-3.51-9.73-5.13-15.26-4.56-5.53.57-10.51,3.25-14.01,7.57-3.51,4.31-5.13,9.73-4.56,15.26.48,4.64,2.45,8.9,5.62,12.22Z"/></g><g><circle class="cls-6" cx="93.8" cy="92.14" r="18.35"/><path class="cls-7" d="m107.6,79c1.2,1.25,2.21,2.66,3.03,4.2,1.15,2.18,1.87,4.53,2.12,6.99.25,2.46.03,4.91-.66,7.27-.71,2.45-1.9,4.7-3.52,6.69-1.62,1.99-3.59,3.61-5.84,4.8-2.18,1.15-4.53,1.87-6.99,2.12-2.46.25-4.91.03-7.27-.66-2.45-.71-4.7-1.9-6.69-3.52-1.99-1.62-3.61-3.59-4.8-5.84-1.15-2.18-1.87-4.53-2.12-6.99-.25-2.46-.03-4.91.66-7.27.71-2.45,1.9-4.7,3.52-6.69h0c1.62-1.99,3.59-3.61,5.84-4.8,2.18-1.15,4.53-1.87,6.99-2.12,2.46-.25,4.91-.03,7.27.66,2.45.71,4.7,1.9,6.69,3.52.63.51,1.22,1.06,1.78,1.64Zm-26.59,25.3c.51.54,1.07,1.05,1.65,1.53,7.55,6.15,18.7,5,24.84-2.55,2.98-3.66,4.35-8.26,3.87-12.95-.48-4.69-2.76-8.92-6.42-11.89-3.66-2.98-8.26-4.35-12.95-3.87-4.69.48-8.92,2.76-11.89,6.42-2.98,3.66-4.35,8.26-3.87,12.95.4,3.94,2.08,7.55,4.77,10.37Z"/></g><g><circle class="cls-6" cx="93.8" cy="92.14" r="15.2"/><path class="cls-7" d="m105.32,81.18c1,1.05,1.85,2.22,2.53,3.51.96,1.82,1.56,3.78,1.77,5.83.21,2.05.03,4.09-.55,6.07-.59,2.04-1.58,3.92-2.94,5.59-1.35,1.66-2.99,3.01-4.87,4.01-1.82.96-3.78,1.56-5.83,1.77-2.05.21-4.09.03-6.07-.55-2.04-.59-3.92-1.58-5.59-2.94-1.66-1.35-3.01-2.99-4.01-4.87-.96-1.82-1.56-3.78-1.77-5.83-.21-2.05-.03-4.09.55-6.07.59-2.04,1.58-3.92,2.94-5.59,1.35-1.66,2.99-3.01,4.87-4.01,1.82-.96,3.78-1.56,5.83-1.77,2.05-.21,4.09-.03,6.07.55,2.04.59,3.92,1.58,5.59,2.94.53.43,1.02.88,1.48,1.37Zm-22.03,20.96c.42.44.88.86,1.36,1.25,3.01,2.45,6.78,3.57,10.64,3.18,3.85-.4,7.32-2.27,9.77-5.27,5.05-6.2,4.11-15.36-2.1-20.41-6.2-5.05-15.36-4.11-20.41,2.1-2.45,3.01-3.57,6.78-3.18,10.64.33,3.24,1.71,6.2,3.92,8.52Z"/></g><g><circle class="cls-6" cx="93.8" cy="92.14" r="12.05"/><path class="cls-7" d="m103.04,83.35c1.94,2.03,3.15,4.64,3.44,7.48.35,3.39-.64,6.7-2.79,9.34-2.15,2.64-5.2,4.29-8.58,4.63-3.39.35-6.7-.64-9.34-2.79-2.64-2.15-4.29-5.2-4.63-8.58-.35-3.39.64-6.7,2.79-9.34,2.15-2.64,5.2-4.29,8.58-4.63,3.39-.35,6.7.64,9.34,2.79.42.34.82.71,1.19,1.1Zm-17.47,16.61c.33.35.69.67,1.06.98,4.86,3.95,12.02,3.22,15.98-1.64,3.65-4.48,3.3-10.93-.59-15-.33-.34-.68-.67-1.05-.97-4.86-3.95-12.02-3.22-15.98,1.64-1.91,2.35-2.8,5.31-2.49,8.33.26,2.53,1.34,4.85,3.07,6.67Z"/></g><g><circle class="cls-6" cx="93.8" cy="92.14" r="8.9"/><path class="cls-7" d="m100.76,85.53c1.46,1.53,2.37,3.49,2.59,5.63.26,2.55-.48,5.05-2.1,7.03-1.62,1.99-3.91,3.23-6.46,3.49-2.55.26-5.05-.48-7.03-2.1-1.99-1.62-3.23-3.91-3.49-6.46-.26-2.55.48-5.05,2.1-7.03,1.62-1.99,3.91-3.23,6.46-3.49,2.55-.26,5.05.48,7.03,2.1.32.26.62.54.9.83Zm-12.9,12.27c.24.25.49.49.77.71,1.7,1.38,3.84,2.02,6.02,1.8,2.18-.22,4.14-1.28,5.53-2.98,1.38-1.7,2.02-3.84,1.8-6.02-.22-2.18-1.28-4.14-2.98-5.53-1.7-1.38-3.84-2.02-6.02-1.8-2.18.22-4.14,1.28-5.53,2.98-1.38,1.7-2.02,3.84-1.8,6.02.19,1.83.96,3.51,2.22,4.82Z"/></g><g><circle class="cls-6" cx="93.8" cy="92.14" r="5.75"/><path class="cls-7" d="m98.47,87.7c.98,1.03,1.59,2.34,1.74,3.78.18,1.71-.33,3.39-1.41,4.72-2.24,2.75-6.31,3.17-9.06.93-2.75-2.24-3.17-6.31-.93-9.06,1.09-1.33,2.63-2.17,4.34-2.34,1.71-.18,3.39.33,4.72,1.41.21.17.42.36.6.56Zm-8.33,7.93c.15.15.3.3.47.43,2.16,1.76,5.35,1.43,7.11-.73.85-1.05,1.25-2.36,1.11-3.71-.14-1.34-.79-2.55-1.84-3.4-1.05-.85-2.36-1.25-3.71-1.11-1.34.14-2.55.79-3.4,1.84-1.62,1.99-1.47,4.86.26,6.68Z"/></g><g><circle class="cls-6" cx="119.46" cy="107.36" r="21.5"/><path class="cls-7" d="m140.81,101.31c.82,2.88,1.04,5.84.68,8.79-.36,2.85-1.25,5.57-2.65,8.08-1.41,2.52-3.25,4.7-5.49,6.5-2.32,1.86-4.95,3.22-7.84,4.03h0c-2.88.82-5.84,1.04-8.79.68-2.85-.36-5.57-1.25-8.08-2.65-2.52-1.41-4.7-3.25-6.5-5.49-1.86-2.32-3.22-4.95-4.03-7.84-.82-2.88-1.04-5.84-.68-8.79.36-2.85,1.25-5.57,2.65-8.08,1.41-2.52,3.25-4.7,5.49-6.5,2.32-1.86,4.95-3.22,7.84-4.03,2.88-.82,5.84-1.04,8.79-.68,2.85.36,5.57,1.25,8.08,2.65,2.52,1.41,4.7,3.25,6.5,5.49,1.27,1.58,2.31,3.32,3.1,5.18.37.86.68,1.75.94,2.66Zm-31.5,24.22c4.85,2.71,10.47,3.37,15.82,1.85,5.35-1.52,9.79-5.02,12.49-9.87,2.71-4.85,3.37-10.47,1.85-15.82-.24-.86-.54-1.69-.88-2.5-1.79-4.23-4.92-7.72-8.99-10-4.85-2.71-10.47-3.37-15.82-1.85-11.04,3.13-17.48,14.65-14.35,25.69.24.86.54,1.69.88,2.5,1.79,4.23,4.92,7.72,8.99,10Z"/></g><g><circle class="cls-6" cx="119.46" cy="107.36" r="18.35"/><path class="cls-7" d="m137.78,102.17c.7,2.47.9,5.01.58,7.54-.3,2.44-1.07,4.78-2.28,6.94-1.21,2.16-2.79,4.04-4.71,5.58-1.99,1.6-4.25,2.76-6.72,3.46h0c-2.47.7-5.01.9-7.54.58-2.44-.3-4.78-1.07-6.94-2.28-2.16-1.21-4.04-2.79-5.58-4.71-1.6-1.99-2.76-4.25-3.46-6.72-.7-2.47-.9-5.01-.58-7.54.3-2.44,1.07-4.78,2.28-6.94,1.21-2.16,2.79-4.04,4.71-5.58,1.99-1.6,4.25-2.76,6.72-3.46,2.47-.7,5.01-.9,7.54-.58,2.44.3,4.78,1.07,6.94,2.28,2.16,1.21,4.04,2.79,5.58,4.71,1.09,1.36,1.98,2.85,2.66,4.44.31.74.58,1.5.8,2.28Zm-26.93,20.61c4.12,2.3,8.88,2.86,13.42,1.57,4.54-1.29,8.3-4.26,10.6-8.38,2.3-4.12,2.86-8.88,1.57-13.42-1.29-4.54-4.26-8.3-8.38-10.6-4.12-2.3-8.88-2.86-13.42-1.57-9.37,2.65-14.83,12.43-12.18,21.8.21.73.46,1.44.75,2.12,1.52,3.59,4.18,6.55,7.63,8.48Z"/></g><g><circle class="cls-6" cx="119.46" cy="107.36" r="15.2"/><path class="cls-7" d="m134.75,103.03c.58,2.06.75,4.18.48,6.29-.25,2.04-.89,3.99-1.9,5.79-1.01,1.8-2.33,3.37-3.93,4.65-1.66,1.33-3.55,2.3-5.61,2.89-2.06.58-4.18.75-6.29.48-2.04-.25-3.99-.89-5.79-1.9-1.8-1.01-3.37-2.33-4.65-3.93-1.33-1.66-2.3-3.55-2.89-5.61-.58-2.06-.75-4.18-.48-6.29.25-2.04.89-3.99,1.9-5.79,1.01-1.8,2.33-3.37,3.93-4.65,1.66-1.33,3.55-2.3,5.61-2.89s4.18-.75,6.29-.48c2.04.25,3.99.89,5.79,1.9,1.8,1.01,3.37,2.33,4.65,3.93.91,1.14,1.65,2.38,2.22,3.71.26.62.49,1.25.67,1.9Zm-22.36,17c3.38,1.89,7.3,2.35,11.03,1.29,7.7-2.18,12.18-10.22,10-17.91-2.18-7.7-10.22-12.18-17.91-10-3.73,1.06-6.82,3.5-8.71,6.88-1.89,3.38-2.35,7.3-1.29,11.03.17.6.37,1.18.61,1.74,1.25,2.95,3.43,5.38,6.27,6.97Z"/></g><g><circle class="cls-6" cx="119.46" cy="107.36" r="12.05"/><path class="cls-7" d="m131.72,103.88c.93,3.27.52,6.71-1.13,9.69-1.66,2.97-4.38,5.12-7.65,6.05-3.27.93-6.71.52-9.69-1.13-2.97-1.66-5.12-4.38-6.05-7.65-.93-3.27-.52-6.71,1.13-9.69,1.66-2.97,4.38-5.12,7.65-6.05,3.27-.93,6.71-.52,9.69,1.13,2.5,1.39,4.41,3.53,5.51,6.12.21.49.39,1.01.54,1.53Zm-17.8,13.39c2.65,1.48,5.71,1.84,8.63,1.01,6.02-1.71,9.54-8,7.83-14.02-.13-.47-.29-.92-.48-1.35-2.2-5.19-7.99-8.06-13.55-6.48-6.02,1.71-9.54,8-7.83,14.02.13.47.29.92.48,1.36.98,2.31,2.69,4.21,4.91,5.45Z"/></g><g><circle class="cls-6" cx="119.46" cy="107.36" r="8.9"/><path class="cls-7" d="m128.68,104.74c.7,2.46.4,5.05-.85,7.29-1.25,2.24-3.29,3.85-5.76,4.55-2.46.7-5.05.4-7.29-.85-2.24-1.25-3.85-3.29-4.55-5.76-.7-2.46-.4-5.05.85-7.29,1.25-2.24,3.29-3.85,5.76-4.55,2.46-.7,5.05-.4,7.29.85,1.88,1.05,3.32,2.66,4.15,4.61.16.37.29.76.41,1.15Zm-13.23,9.78c1.91,1.07,4.13,1.33,6.24.73,2.11-.6,3.86-1.98,4.93-3.89,1.07-1.91,1.33-4.13.73-6.24-.6-2.11-1.98-3.86-3.89-4.93-1.91-1.07-4.13-1.33-6.24-.73-2.11.6-3.86,1.98-4.93,3.89-1.07,1.91-1.33,4.13-.73,6.24.1.34.21.67.35.99.71,1.67,1.94,3.04,3.55,3.94Z"/></g><g><circle class="cls-6" cx="119.46" cy="107.36" r="5.75"/><path class="cls-7" d="m125.65,105.6c.47,1.66.27,3.39-.57,4.9-.84,1.5-2.21,2.59-3.87,3.06-3.42.97-6.98-1.02-7.95-4.44-.97-3.42,1.02-6.98,4.44-7.95,1.66-.47,3.39-.27,4.9.57,1.26.7,2.23,1.79,2.78,3.09.11.25.2.51.27.77Zm-4.82,6.62c1.3-.37,2.38-1.22,3.03-2.4.66-1.18.82-2.54.45-3.84-.37-1.3-1.22-2.38-2.4-3.03-1.18-.66-2.54-.82-3.84-.45-2.68.76-4.24,3.56-3.48,6.24.06.21.13.41.21.6.98,2.31,3.55,3.59,6.03,2.88Z"/></g></g></g></g></svg>